<?xml version="1.0" encoding="utf-8"?>
<!-- Generator: Adobe Illustrator 16.0.4, SVG Export Plug-In . SVG Version: 6.00 Build 0)  -->
<!DOCTYPE svg PUBLIC "-//W3C//DTD SVG 1.1//EN" "http://www.w3.org/Graphics/SVG/1.1/DTD/svg11.dtd">
<svg version="1.1" id="Layer_1" xmlns="http://www.w3.org/2000/svg" xmlns:xlink="http://www.w3.org/1999/xlink" x="0px" y="0px"
	 width="30px" height="30px" viewBox="0 0 30 30" enable-background="new 0 0 30 30" xml:space="preserve">
<g>
	<path fill="#35C0BE" d="M28.852,23.528c0,2.839-2.303,5.142-5.141,5.142H6.578c-2.837,0-5.14-2.303-5.14-5.142V6.397
		c0-2.839,2.303-5.142,5.14-5.142h17.133c2.838,0,5.141,2.303,5.141,5.142V23.528z M24.283,13.82c0-0.624-0.519-1.142-1.143-1.142
		H7.149c-0.625,0-1.143,0.518-1.143,1.142v2.285c0,0.624,0.518,1.142,1.143,1.142h15.992c0.624,0,1.143-0.518,1.143-1.142V13.82z"/>
</g>
</svg>
