<?xml version="1.0" encoding="utf-8"?>
<!-- Generator: Adobe Illustrator 16.0.4, SVG Export Plug-In . SVG Version: 6.00 Build 0)  -->
<!DOCTYPE svg PUBLIC "-//W3C//DTD SVG 1.1//EN" "http://www.w3.org/Graphics/SVG/1.1/DTD/svg11.dtd">
<svg version="1.1" id="Layer_1" xmlns="http://www.w3.org/2000/svg" xmlns:xlink="http://www.w3.org/1999/xlink" x="0px" y="0px"
	 width="128px" height="128px" viewBox="0 0 128 128" enable-background="new 0 0 128 128" xml:space="preserve">
<g>
	<path fill="#848484" stroke="#FFFFFF" stroke-width="2.1982" stroke-miterlimit="10" d="M122.377,116.851
		c0,4.861-4.014,8.876-8.872,8.876H15.87c-4.858,0-8.88-4.015-8.88-8.876V28.092c0-4.854,4.022-8.876,8.88-8.876h8.872v-6.654
		c0-6.104,4.994-11.094,11.102-11.094h4.429c6.108,0,11.102,4.99,11.102,11.094v6.654H78v-6.654c0-6.104,4.986-11.094,11.102-11.094
		h4.421c6.116,0,11.103,4.99,11.103,11.094v6.654h8.88c4.858,0,8.872,4.022,8.872,8.876V116.851z M113.505,116.851V45.848H15.87
		v71.002H113.505z M42.495,12.561c0-1.25-0.972-2.218-2.222-2.218h-4.429c-1.258,0-2.222,0.968-2.222,2.218v19.963
		c0,1.258,0.964,2.218,2.222,2.218h4.429c1.25,0,2.222-0.96,2.222-2.218V12.561z M95.745,12.561c0-1.25-0.965-2.218-2.223-2.218
		h-4.421c-1.25,0-2.229,0.968-2.229,2.218v19.963c0,1.258,0.979,2.218,2.229,2.218h4.421c1.258,0,2.223-0.96,2.223-2.218V12.561z"/>
	<g>
		<path fill="#848484" stroke="#FFFFFF" stroke-width="2.1982" stroke-miterlimit="10" d="M51.232,94.044
			c1.423-2.938,4.203-5.604,8.337-8.006l6.176-3.566c2.765-1.608,4.7-2.982,5.815-4.12c1.762-1.777,2.636-3.814,2.636-6.116
			c0-2.685-0.806-4.816-2.41-6.395c-1.604-1.578-3.751-2.365-6.425-2.365c-3.969,0-6.711,1.506-8.232,4.511
			c-0.813,1.612-1.266,3.85-1.349,6.707h-5.882c0.061-4.007,0.799-7.275,2.214-9.802c2.508-4.459,6.937-6.685,13.271-6.685
			c5.272,0,9.129,1.424,11.562,4.271c2.433,2.851,3.646,6.026,3.646,9.517c0,3.683-1.296,6.835-3.887,9.448
			c-1.499,1.525-4.188,3.363-8.066,5.528l-4.406,2.444c-2.101,1.156-3.75,2.259-4.948,3.307c-2.146,1.871-3.495,3.938-4.052,6.206
			h25.141v5.464H48.769C48.987,100.427,49.808,96.981,51.232,94.044z"/>
	</g>
</g>
</svg>
