<?xml version="1.0" encoding="utf-8"?>
<!-- Generator: Adobe Illustrator 16.0.0, SVG Export Plug-In . SVG Version: 6.00 Build 0)  -->
<!DOCTYPE svg PUBLIC "-//W3C//DTD SVG 1.1//EN" "http://www.w3.org/Graphics/SVG/1.1/DTD/svg11.dtd">
<svg version="1.1" id="Layer_1" xmlns="http://www.w3.org/2000/svg" xmlns:xlink="http://www.w3.org/1999/xlink" x="0px" y="0px"
	 width="50px" height="50px" viewBox="0 0 50 50" enable-background="new 0 0 50 50" xml:space="preserve">
<g>
	<path fill="#828282" d="M47.807,44.589h-2.363c-0.55-0.002-1.588-0.333-1.588-1.577v-7.144c0-0.412-0.147-0.558-0.562-0.558H6.439
		c-0.281,0-0.294,0.094-0.294,0.272v7.396c0,0.751-0.416,1.553-1.582,1.553H2.127c-0.982,0-1.422-0.764-1.422-1.521V29.775
		c0-0.521,0.36-1.081,1.152-1.081L43.85,28.7V4.708c0-0.653,0.571-1.889,2.732-1.889c2.635,0,2.711,1.695,2.711,1.889v38.293
		C49.293,44.01,48.751,44.589,47.807,44.589z"/>
</g>
<g>
	<path fill="#828282" d="M22.43,26.25H3.485c-0.747,0-2.795-0.845-2.795-3.564c0-2.521,1.748-3.566,2.684-3.566h20.915
		c0.511,0,0.859,0.122,1.066,0.373c0.316,0.385,0.208,0.936,0.094,1.519c-0.121,0.61-1.325,3.594-1.462,3.932
		C23.965,24.996,23.452,26.25,22.43,26.25z"/>
</g>
<g>
	<path fill="#828282" d="M40.35,26.24H28.965c-0.593,0-1.044-0.064-1.315-0.381c-0.284-0.332-0.278-0.823-0.181-1.458
		c0.56-3.671,2.929-12.256,12.81-12.685c0.001,0,0.001,0,0.002,0c0.592,0,1.058,0.371,1.103,0.844l0.002,12.564
		C41.385,25.645,41.267,26.24,40.35,26.24z"/>
</g>
</svg>
