<?xml version="1.0" encoding="utf-8"?>
<!-- Generator: Adobe Illustrator 16.0.4, SVG Export Plug-In . SVG Version: 6.00 Build 0)  -->
<!DOCTYPE svg PUBLIC "-//W3C//DTD SVG 1.1//EN" "http://www.w3.org/Graphics/SVG/1.1/DTD/svg11.dtd">
<svg version="1.1" id="Layer_1" xmlns="http://www.w3.org/2000/svg" xmlns:xlink="http://www.w3.org/1999/xlink" x="0px" y="0px"
	 width="128px" height="128px" viewBox="0 0 128 128" enable-background="new 0 0 128 128" xml:space="preserve">
<g>
	<g>
		<path fill="#848484" d="M5.978,29.806c-0.494,0-0.851-0.137-1.071-0.415c-0.332-0.22-0.494-0.577-0.494-1.071
			c0-0.497,0.137-0.879,0.411-1.157L23.296,8.118c0.166-0.169,0.415-0.303,0.743-0.414c0.054,0,0.137-0.025,0.249-0.083h0.083
			c0.382,0,0.768,0.137,1.153,0.415l18.555,18.72c0.332,0.329,0.494,0.711,0.494,1.151c0,0.443-0.162,0.8-0.494,1.074
			c-0.771,0.714-1.511,0.714-2.228,0L24.453,11.414L7.052,29.392C6.774,29.669,6.417,29.806,5.978,29.806z M5.978,29.392
			c-0.328,0-0.605-0.108-0.822-0.328c-0.551-0.551-0.551-1.074,0-1.568L23.544,8.364c0.108-0.111,0.274-0.194,0.494-0.246
			l0.332-0.083c0.382,0,0.66,0.108,0.825,0.328l18.638,18.721c0.545,0.548,0.52,1.071-0.083,1.565c-0.551,0.605-1.074,0.605-1.568,0
			L24.453,10.837L6.803,29.063C6.583,29.283,6.309,29.392,5.978,29.392z M24.453,8.447c-0.057,0-0.111,0.028-0.166,0.08
			c-0.166,0-0.303,0.057-0.415,0.166L5.401,27.744c-0.108,0.22-0.166,0.411-0.166,0.577c0,0.166,0.083,0.329,0.249,0.494
			c0.332,0.332,0.66,0.332,0.991,0l17.978-18.638l17.978,18.227c0.329,0.274,0.686,0.274,1.071,0
			c0.108-0.112,0.166-0.277,0.166-0.497c0-0.274-0.058-0.465-0.166-0.577L24.947,8.692C24.781,8.526,24.615,8.447,24.453,8.447z
			 M38.718,29.309c0-0.548-0.22-1.042-0.66-1.485c-1.428-1.428-3.767-3.831-7.008-7.215c-3.248-3.381-5.003-5.265-5.277-5.647
			c-0.386-0.382-0.8-0.577-1.237-0.577c-0.443,0.054-0.825,0.249-1.157,0.577c-0.108,0.111-1.1,1.125-2.97,3.05
			c-4.067,4.401-7.254,7.751-9.564,10.062c-0.382,0.386-0.577,0.714-0.577,0.991v17.235c0,0.934,0.137,1.54,0.414,1.813
			c0.274,0.274,0.66,0.411,1.15,0.411h9.319v-7.502c-0.054-0.714,0.303-1.074,1.074-1.074h2.473h2.559
			c0.274,0,0.494,0.083,0.66,0.249c0.163,0.166,0.274,0.332,0.328,0.494v0.245v7.588h8.577c1.262,0,1.896-0.714,1.896-2.142V29.309z
			 M35.709,19.99c-0.36,0.331-0.784,0.497-1.278,0.497c-0.497,0-0.921-0.166-1.278-0.497c-0.36-0.329-0.539-0.743-0.539-1.237
			v-6.349c0-0.494,0.179-0.921,0.539-1.278c0.357-0.357,0.781-0.539,1.278-0.539c0.494,0,0.918,0.182,1.278,0.539
			c0.354,0.357,0.535,0.784,0.535,1.278v6.349C36.245,19.248,36.063,19.662,35.709,19.99z M35.419,19.703
			c-0.274,0.246-0.605,0.37-0.988,0.37c-0.385,0-0.717-0.124-0.991-0.37c-0.274-0.249-0.411-0.564-0.411-0.95v-6.349
			c0-0.385,0.137-0.714,0.411-0.991c0.274-0.274,0.605-0.411,0.991-0.411c0.383,0,0.714,0.137,0.988,0.411
			c0.274,0.277,0.414,0.606,0.414,0.991v6.349C35.833,19.139,35.693,19.455,35.419,19.703z M34.431,11.414
			c-0.605,0-0.908,0.332-0.908,0.991v6.349c0,0.609,0.303,0.908,0.908,0.908c0.66,0,0.988-0.299,0.988-0.908v-6.349
			c0-0.22-0.096-0.439-0.287-0.66C34.938,11.525,34.706,11.414,34.431,11.414z"/>
	</g>
	<g>
		<path fill="#848484" d="M74.046,29.972c-0.656,0-1.131-0.182-1.425-0.545c-0.433-0.293-0.649-0.762-0.649-1.415
			c0-0.66,0.178-1.167,0.548-1.53L96.941,1.295c0.22-0.22,0.542-0.398,0.981-0.542c0.07,0,0.179-0.038,0.325-0.111h0.108
			c0.514,0,1.021,0.179,1.53,0.542l24.53,24.757c0.443,0.433,0.656,0.943,0.656,1.523c0,0.586-0.213,1.055-0.656,1.418
			c-1.014,0.943-1.995,0.943-2.941,0L98.472,5.658L75.461,29.427C75.095,29.79,74.62,29.972,74.046,29.972z M74.046,29.427
			c-0.439,0-0.806-0.146-1.093-0.437c-0.73-0.724-0.73-1.418,0-2.072L97.27,1.623c0.144-0.146,0.36-0.255,0.653-0.328l0.434-0.111
			c0.514,0,0.877,0.146,1.097,0.439l24.642,24.75c0.721,0.727,0.686,1.418-0.111,2.072c-0.727,0.8-1.418,0.8-2.071,0L98.472,4.893
			L75.133,28.99C74.846,29.28,74.477,29.427,74.046,29.427z M98.472,1.735c-0.077,0-0.15,0.035-0.224,0.102
			c-0.217,0-0.401,0.08-0.545,0.223L73.281,27.25c-0.146,0.29-0.22,0.542-0.22,0.762c0,0.217,0.108,0.434,0.328,0.653
			c0.434,0.437,0.873,0.437,1.31,0L98.472,4.02l23.769,24.097c0.434,0.366,0.905,0.366,1.418,0c0.144-0.147,0.217-0.364,0.217-0.654
			c0-0.363-0.073-0.618-0.217-0.765L99.122,2.06C98.905,1.837,98.682,1.735,98.472,1.735z M117.332,29.318
			c0-0.727-0.29-1.376-0.873-1.966c-1.887-1.883-4.979-5.067-9.268-9.539c-4.293-4.468-6.616-6.96-6.977-7.464
			c-0.51-0.51-1.062-0.768-1.635-0.768c-0.587,0.07-1.097,0.329-1.53,0.768c-0.144,0.144-1.45,1.488-3.923,4.029
			c-5.38,5.819-9.593,10.249-12.649,13.302c-0.51,0.513-0.765,0.943-0.765,1.31v22.791c0,1.236,0.178,2.036,0.548,2.4
			c0.363,0.363,0.87,0.542,1.523,0.542h12.317v-9.921c-0.066-0.943,0.405-1.415,1.422-1.415h3.273h3.381
			c0.36,0,0.65,0.105,0.87,0.329c0.22,0.213,0.363,0.433,0.437,0.65v0.329v10.029h11.34c1.67,0,2.508-0.94,2.508-2.833V29.318z
			 M113.352,16.998c-0.475,0.437-1.036,0.656-1.689,0.656c-0.656,0-1.22-0.22-1.688-0.656c-0.472-0.437-0.711-0.985-0.711-1.635
			V6.965c0-0.65,0.239-1.214,0.711-1.686c0.469-0.475,1.032-0.714,1.688-0.714c0.653,0,1.215,0.239,1.689,0.714
			c0.472,0.472,0.711,1.036,0.711,1.686v8.397C114.062,16.013,113.823,16.561,113.352,16.998z M112.973,16.615
			c-0.367,0.325-0.804,0.494-1.311,0.494c-0.51,0-0.946-0.169-1.307-0.494c-0.366-0.325-0.548-0.749-0.548-1.252V6.965
			c0-0.507,0.182-0.943,0.548-1.307c0.36-0.364,0.797-0.548,1.307-0.548c0.507,0,0.943,0.185,1.311,0.548
			c0.356,0.363,0.545,0.8,0.545,1.307v8.397C113.518,15.866,113.329,16.29,112.973,16.615z M111.662,5.658
			c-0.8,0-1.201,0.433-1.201,1.307v8.397c0,0.8,0.401,1.198,1.201,1.198c0.874,0,1.311-0.398,1.311-1.198V6.965
			c0-0.29-0.131-0.583-0.386-0.874C112.335,5.805,112.025,5.658,111.662,5.658z"/>
	</g>
	<g>
		<path fill="#848484" d="M14.155,88.76c-0.984,0-1.702-0.274-2.142-0.825c-0.656-0.44-0.981-1.15-0.981-2.139
			c0-0.991,0.271-1.756,0.822-2.308L48.712,45.48c0.332-0.332,0.822-0.603,1.482-0.822c0.108,0,0.274-0.054,0.491-0.166h0.166
			c0.765,0,1.536,0.274,2.307,0.822l37.023,37.355c0.657,0.66,0.985,1.425,0.985,2.302c0,0.883-0.328,1.593-0.985,2.142
			c-1.542,1.428-3.018,1.428-4.445,0l-34.72-35.051L16.294,87.935C15.743,88.485,15.032,88.76,14.155,88.76z M14.155,87.935
			c-0.66,0-1.211-0.221-1.644-0.657c-1.1-1.096-1.1-2.142,0-3.129l36.692-38.175c0.22-0.22,0.551-0.385,0.991-0.494l0.657-0.166
			c0.765,0,1.316,0.22,1.647,0.66l37.19,37.355c1.093,1.097,1.038,2.135-0.166,3.123c-1.097,1.208-2.139,1.208-3.13,0L51.017,50.911
			L15.803,87.277C15.363,87.714,14.812,87.935,14.155,87.935z M51.017,46.14c-0.111,0-0.223,0.054-0.332,0.159
			c-0.325,0-0.602,0.115-0.822,0.332L13.005,84.646c-0.22,0.437-0.332,0.818-0.332,1.15c0,0.331,0.166,0.656,0.498,0.988
			c0.656,0.659,1.316,0.659,1.973,0l35.873-37.19L86.89,85.962c0.66,0.551,1.37,0.551,2.142,0c0.214-0.221,0.325-0.552,0.325-0.991
			c0-0.545-0.111-0.931-0.325-1.151L52.001,46.63C51.676,46.299,51.345,46.14,51.017,46.14z M79.483,87.769
			c0-1.097-0.44-2.081-1.316-2.964c-2.853-2.85-7.519-7.646-13.985-14.396c-6.479-6.748-9.988-10.505-10.533-11.27
			c-0.771-0.765-1.593-1.157-2.466-1.157c-0.88,0.112-1.648,0.497-2.305,1.157c-0.22,0.22-2.199,2.247-5.928,6.087
			c-8.114,8.777-14.476,15.467-19.087,20.075c-0.765,0.765-1.15,1.425-1.15,1.976v34.392c0,1.864,0.274,3.069,0.825,3.62
			c0.545,0.545,1.316,0.819,2.301,0.819h18.593v-14.973c-0.108-1.425,0.605-2.142,2.142-2.142h4.937h5.103
			c0.545,0,0.984,0.166,1.316,0.497c0.325,0.328,0.545,0.66,0.657,0.984v0.494v15.139H75.7c2.521,0,3.783-1.425,3.783-4.273V87.769z
			 M73.479,69.176c-0.717,0.656-1.564,0.987-2.55,0.987c-0.99,0-1.839-0.331-2.549-0.987c-0.718-0.66-1.074-1.482-1.074-2.467
			V54.034c0-0.981,0.356-1.833,1.074-2.546c0.71-0.714,1.559-1.074,2.549-1.074c0.985,0,1.833,0.36,2.55,1.074
			c0.711,0.714,1.071,1.565,1.071,2.546v12.675C74.55,67.693,74.189,68.516,73.479,69.176z M72.902,68.599
			c-0.552,0.494-1.208,0.742-1.974,0.742c-0.771,0-1.428-0.248-1.976-0.742c-0.548-0.491-0.822-1.125-0.822-1.89V54.034
			c0-0.765,0.274-1.421,0.822-1.973c0.548-0.545,1.205-0.822,1.976-0.822c0.766,0,1.422,0.277,1.974,0.822
			c0.545,0.551,0.825,1.208,0.825,1.973v12.675C73.728,67.474,73.447,68.107,72.902,68.599z M70.929,52.061
			c-1.211,0-1.812,0.66-1.812,1.973v12.675c0,1.208,0.602,1.807,1.812,1.807c1.316,0,1.974-0.599,1.974-1.807V54.034
			c0-0.437-0.194-0.876-0.574-1.313C71.942,52.281,71.475,52.061,70.929,52.061z"/>
	</g>
</g>
</svg>
