<?xml version="1.0" encoding="utf-8"?>
<!-- Generator: Adobe Illustrator 16.0.0, SVG Export Plug-In . SVG Version: 6.00 Build 0)  -->
<!DOCTYPE svg PUBLIC "-//W3C//DTD SVG 1.1//EN" "http://www.w3.org/Graphics/SVG/1.1/DTD/svg11.dtd">
<svg version="1.1" id="Layer_1" xmlns="http://www.w3.org/2000/svg" xmlns:xlink="http://www.w3.org/1999/xlink" x="0px" y="0px"
	 width="50px" height="50px" viewBox="0 0 50 50" enable-background="new 0 0 50 50" xml:space="preserve">
<path fill="#828282" d="M48.396,16.983c-0.795-1.835-4.271-1.835-4.271-1.835c-1.572-5.429-2.449-9.709-5.302-10.453
	C24.961,1.063,13.299,4.222,10.306,5.098C7.329,5.979,5.565,15.56,5.565,15.56c-2.651,0.272-4.139,0.205-4.677,3.66
	c-0.406,2.499,2.905,2.246,2.905,2.246S3.19,23.44,2.646,25.19C2.106,26.956,2.45,41.091,2.45,43.577c0,2.504,2.16,2.17,2.16,2.17
	s3.263,0,5.853,0c2.582,0,2.174-1.746,2.174-1.746v-4.22h24.365c0,0,0,0,0,3.188c0,3.182,1.834,2.768,1.834,2.768s3.883,0,6.255,0
	c2.365,0,2.032-2.5,2.032-2.5s0.062-16.354,0-17.586c-0.07-1.225-1.23-4.481-1.23-4.481l1.021,0.14
	C50.091,21.12,49.18,18.82,48.396,16.983z M14.79,31.372c-3.054,0.614-7.891,0.677-8.148-1.496c-0.277-2.163,0-3.114,0-3.114
	s-0.207-1.841,2.382-1.367c2.569,0.476,7.063,3.8,7.063,3.8S17.844,30.764,14.79,31.372z M7.39,19.901l3.058-11.543
	c16.349-4.962,28.711,0,28.711,0l3.386,11.543C22.19,23.502,7.39,19.901,7.39,19.901z M42.794,29.883
	c-0.249,2.176-5.099,2.105-8.146,1.5c-3.053-0.607-1.289-2.165-1.289-2.165s4.498-3.327,7.062-3.804
	c2.597-0.477,2.364,1.367,2.364,1.367S43.079,27.717,42.794,29.883z"/>
</svg>
