<?xml version="1.0" encoding="utf-8"?>
<!-- Generator: Adobe Illustrator 16.0.0, SVG Export Plug-In . SVG Version: 6.00 Build 0)  -->
<!DOCTYPE svg PUBLIC "-//W3C//DTD SVG 1.1//EN" "http://www.w3.org/Graphics/SVG/1.1/DTD/svg11.dtd">
<svg version="1.1" id="Layer_1" xmlns="http://www.w3.org/2000/svg" xmlns:xlink="http://www.w3.org/1999/xlink" x="0px" y="0px"
	 width="784.932px" height="413.699px" viewBox="0 0 784.932 413.699" enable-background="new 0 0 784.932 413.699"
	 xml:space="preserve">
<circle opacity="0.5" fill="#00CBE2" cx="205.398" cy="203.996" r="197.99"/>
<g>
	<defs>
		<circle id="SVGID_1_" cx="205.398" cy="203.996" r="197.99"/>
	</defs>
	<clipPath id="SVGID_2_">
		<use xlink:href="#SVGID_1_"  overflow="visible"/>
	</clipPath>
	<polyline opacity="0.2" clip-path="url(#SVGID_2_)" fill="#55BDC3" points="302.406,272.751 568.836,509 298.047,509 
		46.449,288.292 	"/>
</g>
<g>
	<g>
		<circle fill="#FDF0DE" cx="170.223" cy="273.636" r="29.565"/>
		<path fill="#FDF0DE" d="M65.265,236.681c0,8.164,6.616,14.779,14.783,14.779c8.165,0,14.782-6.615,14.782-14.779
			c0-8.166-6.617-14.785-14.782-14.785C71.881,221.896,65.265,228.515,65.265,236.681z"/>
		<path fill="#FDF0DE" d="M75.83,264.58c2.342,23.148,23.016,40.016,46.161,37.67c23.15-2.348,40.013-23.016,37.671-46.164
			c-2.35-23.152-23.015-40.016-46.166-37.672C90.346,220.763,73.481,241.431,75.83,264.58z"/>
		<path fill="#FDF0DE" d="M96.309,274.009c0,14.898-12.08,26.977-26.978,26.977c-14.901,0-26.979-12.078-26.979-26.977
			c0-14.902,12.078-26.982,26.979-26.982C84.229,247.027,96.309,259.107,96.309,274.009z"/>
	</g>
	<g>
		<circle fill="#FFFFFF" cx="174.318" cy="271.587" r="29.565"/>
		<circle fill="#FFFFFF" cx="84.145" cy="234.632" r="14.784"/>
		<path fill="#FFFFFF" d="M79.926,262.531c2.343,23.148,23.015,40.016,46.161,37.672c23.151-2.35,40.014-23.016,37.67-46.168
			c-2.35-23.148-23.015-40.012-46.164-37.668C94.443,218.716,77.577,239.382,79.926,262.531z"/>
		<circle fill="#FFFFFF" cx="73.427" cy="271.958" r="26.978"/>
	</g>
	<g>
		<path fill="#FDF0DE" d="M163.757,254.035c0,0,0.08,0.818,0.018,2.252c-0.041,0.713-0.08,1.589-0.224,2.577
			c-0.123,0.992-0.298,2.111-0.581,3.313c-0.526,2.414-1.394,5.2-2.76,8.022c-0.659,1.423-1.484,2.83-2.382,4.224
			c-0.937,1.37-1.952,2.73-3.113,3.974c-1.142,1.259-2.418,2.399-3.733,3.441c-1.34,1.014-2.736,1.908-4.156,2.638
			c-1.417,0.733-2.851,1.306-4.23,1.748c-0.701,0.192-1.369,0.412-2.032,0.56c-0.666,0.124-1.309,0.243-1.927,0.357
			c-1.238,0.178-2.375,0.292-3.383,0.301c-1.009,0.004-1.877,0.025-2.596-0.058c-1.434-0.134-2.234-0.26-2.234-0.26
			s0.798-0.232,2.162-0.552c0.685-0.138,1.492-0.446,2.421-0.679c0.466-0.112,0.946-0.301,1.451-0.48
			c0.503-0.189,1.045-0.322,1.584-0.548c0.536-0.221,1.095-0.451,1.673-0.688c0.561-0.265,1.14-0.537,1.736-0.817
			c1.173-0.585,2.369-1.261,3.554-2.028c0.601-0.369,1.165-0.819,1.763-1.224c0.577-0.437,1.138-0.911,1.719-1.362
			c1.099-0.986,2.217-1.987,3.212-3.119c1.046-1.083,1.959-2.293,2.875-3.473c0.862-1.223,1.713-2.434,2.449-3.675
			c0.756-1.227,1.432-2.456,2.053-3.64c0.61-1.189,1.183-2.328,1.673-3.402c0.977-2.149,1.722-4.002,2.232-5.314
			C163.484,254.808,163.757,254.035,163.757,254.035z"/>
	</g>
	<g>
		<path fill="#FDF0DE" d="M88.696,232.279c0,0-0.246,0.518-0.677,1.423c-0.225,0.437-0.447,1.004-0.756,1.601
			c-0.27,0.627-0.599,1.31-0.92,2.069c-0.334,0.752-0.692,1.56-1.035,2.425c-0.383,0.844-0.69,1.773-1.07,2.696
			c-0.334,0.942-0.677,1.912-1.004,2.896c-0.264,1.004-0.658,1.987-0.855,3.017l-0.393,1.52c-0.097,0.511-0.193,1.02-0.29,1.524
			c-0.083,0.507-0.214,1.007-0.286,1.505c-0.056,0.501-0.107,0.996-0.18,1.484c-0.057,0.488-0.156,0.972-0.178,1.444
			c-0.026,0.477-0.052,0.942-0.078,1.396c-0.036,0.459-0.071,0.906-0.104,1.338c0.006,0.434,0.011,0.853,0.017,1.255
			c0.018,0.807-0.044,1.574-0.016,2.246c0.067,0.663,0.085,1.26,0.111,1.754c0.045,0.99,0.03,1.589,0.03,1.589
			s-0.321-0.474-0.812-1.359c-0.243-0.444-0.549-0.986-0.856-1.631c-0.294-0.646-0.53-1.409-0.805-2.247
			c-0.128-0.424-0.261-0.865-0.399-1.321c-0.079-0.469-0.161-0.952-0.245-1.45c-0.074-0.504-0.149-1.021-0.226-1.55
			c-0.087-0.531-0.042-1.075-0.068-1.631c-0.015-0.556-0.007-1.121-0.004-1.695c0.013-0.572,0.104-1.144,0.17-1.724
			c0.079-0.577,0.123-1.169,0.24-1.747l0.405-1.725c0.255-1.159,0.698-2.255,1.09-3.344c0.185-0.55,0.463-1.055,0.697-1.569
			c0.25-0.508,0.463-1.024,0.749-1.494c0.552-0.948,1.074-1.866,1.674-2.67c0.565-0.824,1.162-1.557,1.733-2.212
			c0.556-0.665,1.15-1.21,1.645-1.706c0.517-0.482,0.981-0.882,1.386-1.191C88.181,232.561,88.696,232.279,88.696,232.279z"/>
	</g>
	<g>
		<path fill="#4B3E3D" d="M274.93,258.31c0,0,5.775-7.166,6.877-13.762c1.1-6.592,0.549-20.162,0-20.713
			c-0.551-0.549-0.551-8.068-0.551-8.068s-8.42-20.576-5.318,0c3.102,20.58-3.3,37.957-3.3,37.957L274.93,258.31z"/>
		<ellipse fill="#9AAD29" cx="280.371" cy="171.027" rx="19.102" ry="28.604"/>
		<ellipse fill="#9AAD29" cx="281.838" cy="191.541" rx="20.568" ry="28.629"/>
		<path fill="#725D5B" d="M276.904,196.229c0,0,6.849,35.429-1.975,60.429h20.388c0,0-10.96-19.381-4.845-60.953L276.904,196.229z"
			/>
		<ellipse fill="#B7D83F" cx="283.304" cy="171.027" rx="19.102" ry="28.604"/>
		<ellipse fill="#B7D83F" cx="283.304" cy="191.541" rx="19.102" ry="28.629"/>
		<g>
			<path fill="#9AAD29" d="M298.93,181.577c0,0-0.15,1.135-0.7,2.763c-0.149,0.402-0.292,0.848-0.499,1.298
				c-0.182,0.462-0.427,0.923-0.688,1.4c-0.243,0.487-0.58,0.941-0.879,1.432c-0.36,0.447-0.684,0.943-1.097,1.364
				c-0.402,0.433-0.801,0.874-1.263,1.241c-0.225,0.19-0.441,0.39-0.672,0.563c-0.247,0.153-0.491,0.304-0.73,0.453
				c-0.479,0.303-0.992,0.498-1.489,0.645c-0.245,0.079-0.483,0.155-0.714,0.229c-0.24,0.034-0.472,0.067-0.694,0.099
				c-0.444,0.053-0.846,0.119-1.206,0.11c-0.362-0.02-0.675-0.046-0.931-0.08c-0.51-0.051-0.793-0.108-0.793-0.108l-0.004-0.146
				c0,0,0.278-0.112,0.751-0.26c0.235-0.082,0.519-0.167,0.841-0.253c0.321-0.092,0.663-0.269,1.044-0.398
				c0.188-0.069,0.384-0.141,0.587-0.215c0.193-0.096,0.392-0.195,0.597-0.297c0.203-0.104,0.414-0.201,0.631-0.297
				c0.213-0.104,0.415-0.24,0.63-0.36c0.219-0.114,0.442-0.23,0.668-0.347c0.213-0.141,0.429-0.283,0.647-0.427
				c0.459-0.262,0.853-0.627,1.265-0.976c0.416-0.345,0.754-0.774,1.132-1.155c0.32-0.43,0.682-0.824,0.955-1.262
				c0.589-0.847,1.056-1.702,1.435-2.447c0.738-1.506,1.031-2.598,1.031-2.598L298.93,181.577z"/>
		</g>
		<g>
			<path fill="#9AAD29" d="M284.193,148.215c0,0,0.983-0.04,2.436,0.222c0.363,0.068,0.757,0.143,1.167,0.258
				c0.418,0.091,0.835,0.261,1.277,0.414c0.434,0.172,0.879,0.369,1.32,0.592c0.428,0.248,0.887,0.469,1.291,0.78l0.629,0.436
				l0.58,0.496c0.41,0.308,0.719,0.705,1.035,1.074c0.321,0.368,0.523,0.798,0.722,1.194c0.093,0.202,0.204,0.386,0.272,0.583
				c0.06,0.199,0.118,0.392,0.173,0.577c0.101,0.371,0.212,0.701,0.239,1.013c0.031,0.311,0.048,0.58,0.051,0.803
				c0.021,0.441,0.004,0.691,0.004,0.691l-0.144,0.031c0,0-0.149-0.214-0.358-0.586c-0.113-0.184-0.235-0.407-0.365-0.662
				c-0.121-0.259-0.334-0.516-0.501-0.816c-0.177-0.297-0.357-0.619-0.601-0.925c-0.24-0.307-0.429-0.667-0.711-0.98
				c-0.245-0.34-0.49-0.7-0.792-1.028l-0.442-0.511l-0.507-0.459c-0.329-0.322-0.722-0.566-1.087-0.84
				c-0.38-0.25-0.771-0.479-1.157-0.687c-0.783-0.395-1.545-0.723-2.222-0.95c-1.355-0.464-2.316-0.573-2.316-0.573L284.193,148.215
				z"/>
		</g>
	</g>
	<g>
		
			<polyline fill="none" stroke="#56BCC4" stroke-width="8.6883" stroke-linecap="round" stroke-linejoin="round" stroke-miterlimit="10" points="
			100.428,158.439 94.926,154.509 141.162,113.81 147.151,114.66 193.718,158.439 181.699,153.373 		"/>
		<polygon fill="#FDF0DE" stroke="#FDF0DE" stroke-width="7" stroke-linejoin="round" stroke-miterlimit="10" points="
			181.377,168.103 231.377,193.515 231.377,240.158 181.377,240.158 		"/>
		<rect x="192.877" y="214.658" fill="#725D5B" width="31" height="30"/>
		
			<polyline fill="none" stroke="#56BCC4" stroke-width="2.8961" stroke-linecap="round" stroke-linejoin="round" stroke-miterlimit="10" points="
			182.444,171.439 235.061,196.992 241.023,198.408 		"/>
		<polyline fill="none" stroke="#473938" stroke-width="3" stroke-miterlimit="10" points="223.877,216.158 193.377,216.158 
			193.377,244.658 		"/>
		<polygon fill="#FFCE87" points="185.877,246.658 182.877,246.658 182.877,173.646 185.877,174.656 		"/>
		
			<line fill="none" stroke="#8CDBD7" stroke-width="7.4375" stroke-linecap="round" stroke-linejoin="round" stroke-miterlimit="10" x1="185.341" y1="168.541" x2="241.432" y2="196.121"/>
		<polygon fill="#FFCE87" stroke="#FFCE87" stroke-width="7" stroke-linejoin="round" stroke-miterlimit="10" points="
			112.271,243.73 107.377,239.568 107.377,151.781 113.061,146.324 		"/>
		<polygon fill="#FDF0DE" stroke="#FDF0DE" stroke-width="7" stroke-linejoin="round" stroke-miterlimit="10" points="
			181.377,243.158 112.377,243.158 112.377,148.398 146.877,123.605 181.377,148.398 		"/>
		<rect x="169.877" y="153.658" fill="#FDF0DE" width="14" height="93"/>
		<rect x="137.877" y="218.658" fill="#725D5B" width="17" height="28"/>
		<circle fill="#FDF0DE" cx="151.792" cy="232.908" r="1.589"/>
		<g>
			
				<polyline fill="none" stroke="#7097AD" stroke-width="4" stroke-linecap="round" stroke-linejoin="round" stroke-miterlimit="10" points="
				125.724,177.843 124.877,176.687 124.877,155.658 142.784,155.658 143.859,156.907 			"/>
			
				<rect x="126.877" y="157.658" fill="#FFFFFF" stroke="#91BEDE" stroke-width="4" stroke-linecap="round" stroke-linejoin="round" stroke-miterlimit="10" width="18" height="19"/>
		</g>
		<g>
			
				<polyline fill="none" stroke="#7097AD" stroke-width="4" stroke-linecap="round" stroke-linejoin="round" stroke-miterlimit="10" points="
				156.624,177.843 155.877,176.687 155.877,155.658 173.589,155.658 174.712,156.907 			"/>
			
				<rect x="155.877" y="157.658" fill="#FFFFFF" stroke="#91BEDE" stroke-width="4" stroke-linecap="round" stroke-linejoin="round" stroke-miterlimit="10" width="18" height="19"/>
		</g>
		<g>
			
				<polyline fill="none" stroke="#7097AD" stroke-width="4" stroke-linecap="round" stroke-linejoin="round" stroke-miterlimit="10" points="
				125.724,208.65 124.877,207.494 124.877,185.658 142.784,185.658 143.859,187.307 			"/>
			
				<rect x="126.877" y="187.658" fill="#FFFFFF" stroke="#91BEDE" stroke-width="4" stroke-linecap="round" stroke-linejoin="round" stroke-miterlimit="10" width="18" height="21"/>
		</g>
		<g>
			
				<polyline fill="none" stroke="#7097AD" stroke-width="4" stroke-linecap="round" stroke-linejoin="round" stroke-miterlimit="10" points="
				156.624,208.65 155.877,207.494 155.877,185.658 173.589,185.658 174.712,187.307 			"/>
			
				<rect x="155.877" y="187.658" fill="#FFFFFF" stroke="#91BEDE" stroke-width="4" stroke-linecap="round" stroke-linejoin="round" stroke-miterlimit="10" width="18" height="21"/>
		</g>
		<polyline fill="none" stroke="#473938" stroke-width="3" stroke-miterlimit="10" points="154.877,219.158 137.377,219.158 
			137.377,246.658 		"/>
		
			<line fill="none" stroke="#56BCC4" stroke-width="2.8961" stroke-linecap="round" stroke-linejoin="round" stroke-miterlimit="10" x1="146.933" y1="120.935" x2="189.665" y2="159.597"/>
		
			<polyline fill="none" stroke="#8CDBD7" stroke-width="9.9166" stroke-linecap="round" stroke-linejoin="round" stroke-miterlimit="10" points="
			100.428,157.693 147.533,115.546 194.018,157.693 		"/>
	</g>
	<g>
		<g>
			<circle fill="#FDF0DE" cx="293.951" cy="286.326" r="29.565"/>
			<circle fill="#FDF0DE" cx="203.776" cy="249.371" r="14.783"/>
			<path fill="#FDF0DE" d="M199.558,277.269c2.343,23.148,23.014,40.016,46.163,37.672c23.148-2.35,40.012-23.016,37.67-46.166
				c-2.351-23.15-23.016-40.014-46.166-37.67C214.075,233.453,197.21,254.121,199.558,277.269z"/>
			<circle fill="#FDF0DE" cx="193.059" cy="286.699" r="26.978"/>
		</g>
		<g>
			<circle fill="#FFFFFF" cx="298.047" cy="284.277" r="29.565"/>
			<path fill="#FFFFFF" d="M193.089,247.324c0,8.162,6.619,14.779,14.784,14.779c8.165,0,14.785-6.617,14.785-14.779
				c0-8.168-6.62-14.785-14.785-14.785C199.708,232.539,193.089,239.156,193.089,247.324z"/>
			<path fill="#FFFFFF" d="M203.654,275.22c2.344,23.15,23.015,40.014,46.163,37.672c23.15-2.35,40.014-23.016,37.67-46.166
				c-2.35-23.148-23.015-40.014-46.165-37.67C218.172,231.404,201.306,252.074,203.654,275.22z"/>
			<path fill="#FFFFFF" d="M224.133,284.65c0,14.896-12.078,26.979-26.976,26.979c-14.9,0-26.98-12.082-26.98-26.979
				c0-14.902,12.081-26.98,26.98-26.98C212.055,257.669,224.133,269.748,224.133,284.65z"/>
		</g>
		<g>
			<path fill="#FDF0DE" d="M287.486,266.726c0,0,0.08,0.818,0.018,2.252c-0.041,0.713-0.08,1.589-0.224,2.576
				c-0.123,0.993-0.298,2.112-0.581,3.314c-0.526,2.414-1.394,5.199-2.76,8.022c-0.659,1.423-1.484,2.829-2.382,4.224
				c-0.937,1.37-1.952,2.729-3.114,3.974c-1.142,1.259-2.418,2.399-3.733,3.441c-1.34,1.013-2.737,1.908-4.157,2.637
				c-1.418,0.733-2.851,1.306-4.231,1.748c-0.701,0.192-1.369,0.412-2.031,0.56c-0.666,0.123-1.309,0.243-1.927,0.357
				c-1.238,0.178-2.375,0.291-3.383,0.301c-1.009,0.003-1.878,0.025-2.596-0.059c-1.434-0.134-2.234-0.26-2.234-0.26
				s0.798-0.232,2.162-0.552c0.685-0.137,1.492-0.446,2.421-0.678c0.466-0.113,0.946-0.302,1.451-0.48
				c0.503-0.19,1.045-0.323,1.584-0.548c0.536-0.222,1.095-0.451,1.673-0.689c0.561-0.264,1.14-0.536,1.736-0.816
				c1.173-0.585,2.37-1.261,3.555-2.028c0.601-0.369,1.164-0.819,1.762-1.224c0.578-0.437,1.138-0.911,1.719-1.362
				c1.099-0.986,2.217-1.986,3.212-3.119c1.045-1.083,1.959-2.292,2.875-3.473c0.862-1.222,1.714-2.434,2.449-3.674
				c0.756-1.227,1.432-2.456,2.053-3.641c0.61-1.188,1.183-2.327,1.673-3.401c0.977-2.15,1.722-4.002,2.232-5.314
				C287.213,267.5,287.486,266.726,287.486,266.726z"/>
		</g>
		<g>
			<path fill="#FDF0DE" d="M212.425,244.97c0,0-0.246,0.518-0.677,1.423c-0.225,0.437-0.447,1.004-0.756,1.601
				c-0.27,0.627-0.599,1.31-0.92,2.069c-0.334,0.752-0.691,1.559-1.035,2.424c-0.383,0.845-0.69,1.773-1.07,2.696
				c-0.334,0.942-0.677,1.912-1.004,2.896c-0.264,1.004-0.658,1.987-0.855,3.017l-0.393,1.52c-0.097,0.511-0.193,1.02-0.29,1.524
				c-0.083,0.507-0.214,1.007-0.286,1.505c-0.056,0.501-0.107,0.996-0.18,1.484c-0.057,0.488-0.156,0.972-0.178,1.444
				c-0.026,0.477-0.052,0.942-0.078,1.396c-0.036,0.459-0.07,0.906-0.104,1.338c0.006,0.434,0.012,0.853,0.017,1.255
				c0.018,0.807-0.044,1.574-0.016,2.246c0.067,0.663,0.085,1.26,0.111,1.754c0.045,0.99,0.03,1.589,0.03,1.589
				s-0.321-0.474-0.812-1.359c-0.243-0.444-0.549-0.986-0.856-1.631c-0.294-0.646-0.53-1.409-0.805-2.247
				c-0.128-0.424-0.261-0.865-0.399-1.321c-0.079-0.469-0.161-0.952-0.245-1.45c-0.074-0.504-0.149-1.021-0.226-1.55
				c-0.087-0.531-0.042-1.075-0.068-1.631c-0.015-0.556-0.007-1.121-0.004-1.695c0.013-0.572,0.104-1.144,0.17-1.724
				c0.079-0.577,0.123-1.169,0.24-1.747l0.405-1.725c0.255-1.159,0.698-2.255,1.09-3.345c0.185-0.549,0.463-1.055,0.697-1.569
				c0.25-0.507,0.463-1.024,0.749-1.494c0.552-0.947,1.074-1.866,1.673-2.67c0.566-0.823,1.162-1.557,1.734-2.211
				c0.556-0.666,1.15-1.211,1.645-1.707c0.517-0.482,0.981-0.882,1.386-1.191C211.91,245.252,212.425,244.97,212.425,244.97z"/>
		</g>
	</g>
</g>
<g>
	<path fill="#FF4C3A" d="M480.961,52.367c2.014,0,3.777,1.68,3.777,3.611c0,2.015-1.764,3.694-3.777,3.694
		c-2.016,0-3.611-1.68-3.611-3.694C477.35,54.047,478.945,52.367,480.961,52.367z M479.281,67.734h3.441l1.176,41.396h-5.709
		L479.281,67.734z"/>
	<path fill="#FF4C3A" d="M497.166,93.679V37.673h35.52v4.366h-30.732v20.74h30.145v4.367h-30.145v22.168h30.732v4.365H497.166z"/>
	<path fill="#FF4C3A" d="M577.357,93.679l-15.703-23.174h-12.344v23.174h-4.785V37.673h20.908c9.656,0,17.045,6.13,17.045,16.374
		c0,10.16-7.221,15.786-15.533,16.122l16.205,23.51H577.357z M577.441,54.047c0-7.054-5.039-12.008-12.428-12.008h-15.703v24.1
		h15.703C572.402,66.139,577.441,61.1,577.441,54.047z"/>
	<path fill="#FF4C3A" d="M627.234,93.679l-15.701-23.174h-12.344v23.174h-4.787V37.673h20.908c9.656,0,17.047,6.13,17.047,16.374
		c0,10.16-7.223,15.786-15.535,16.122l16.207,23.51H627.234z M627.318,54.047c0-7.054-5.037-12.008-12.428-12.008h-15.701v24.1
		h15.701C622.281,66.139,627.318,61.1,627.318,54.047z"/>
	<path fill="#FF4C3A" d="M642.182,65.719c0-16.375,10.748-28.97,27.205-28.97c16.375,0,27.207,12.595,27.207,28.97
		c0,16.373-10.832,28.968-27.207,28.968C652.93,94.687,642.182,82.092,642.182,65.719z M691.555,65.719
		c0-14.275-8.732-24.604-22.168-24.604c-13.602,0-22.168,10.328-22.168,24.604c0,14.106,8.566,24.604,22.168,24.604
		C682.822,90.322,691.555,79.825,691.555,65.719z"/>
	<path fill="#FF4C3A" d="M741.266,93.679l-15.701-23.174h-12.344v23.174h-4.787V37.673h20.908c9.656,0,17.045,6.13,17.045,16.374
		c0,10.16-7.221,15.786-15.533,16.122l16.205,23.51H741.266z M741.35,54.047c0-7.054-5.039-12.008-12.428-12.008h-15.701v24.1
		h15.701C736.311,66.139,741.35,61.1,741.35,54.047z"/>
	<path fill="#FF4C3A" d="M756.883,90.742c0-1.932,1.596-3.611,3.609-3.611c2.016,0,3.779,1.68,3.779,3.611
		c0,2.014-1.764,3.693-3.779,3.693C758.479,94.435,756.883,92.756,756.883,90.742z M758.814,79.069l-1.092-41.396h5.625
		l-1.092,41.396H758.814z"/>
</g>
<text transform="matrix(1 0 0 1 477.3496 297.4741)" fill="#5D5D5D" font-family="'ProximaNova-Light'" font-size="31.5435">Página no encontrada</text>
<g>
	<path fill="#00CBE2" d="M543.995,242.123v-36.246h-58.553v-6.135l56.694-81.602h7.807v82.16h18.774v5.576h-18.774v36.246H543.995z
		 M543.995,124.832L491.948,200.3h52.047V124.832z"/>
	<path fill="#00CBE2" d="M582.286,180.224c0-28.812,11.525-63.943,44.24-63.943c32.529,0,44.055,35.131,44.055,63.943
		c0,28.625-11.525,64.129-44.055,64.129C593.812,244.353,582.286,208.849,582.286,180.224z M664.075,180.224
		c0-26.395-8.923-58.367-37.549-58.367s-37.734,31.973-37.734,58.367c0,26.209,9.108,58.553,37.734,58.553
		C654.967,238.777,664.075,206.433,664.075,180.224z"/>
	<path fill="#00CBE2" d="M742.705,242.123v-36.246h-58.553v-6.135l56.694-81.602h7.807v82.16h18.774v5.576h-18.774v36.246H742.705z
		 M742.705,124.832L690.658,200.3h52.047V124.832z"/>
</g>
</svg>
