<?xml version="1.0" encoding="utf-8"?>
<!-- Generator: Adobe Illustrator 16.0.0, SVG Export Plug-In . SVG Version: 6.00 Build 0)  -->
<!DOCTYPE svg PUBLIC "-//W3C//DTD SVG 1.1//EN" "http://www.w3.org/Graphics/SVG/1.1/DTD/svg11.dtd">
<svg version="1.1" id="Layer_1" xmlns="http://www.w3.org/2000/svg" xmlns:xlink="http://www.w3.org/1999/xlink" x="0px" y="0px"
	 width="40px" height="40px" viewBox="0 0 40 40" enable-background="new 0 0 40 40" xml:space="preserve">
<g>
	<path fill="#5D5D5D" d="M36.621,39.688c-0.798,0-1.573-0.329-2.112-0.892l-8.051-8.027c-2.746,1.901-6.031,2.91-9.365,2.91
		c-9.13,0-16.523-7.393-16.523-16.523c0-9.13,7.393-16.523,16.523-16.523c9.13,0,16.523,7.393,16.523,16.523
		c0,3.333-1.009,6.619-2.91,9.365l8.051,8.051c0.539,0.539,0.868,1.314,0.868,2.112C39.625,38.326,38.264,39.688,36.621,39.688z
		 M17.093,6.641c-5.797,0-10.515,4.717-10.515,10.515s4.717,10.515,10.515,10.515s10.515-4.718,10.515-10.515
		S22.891,6.641,17.093,6.641z"/>
</g>
</svg>
