<?xml version="1.0" encoding="utf-8"?>
<!-- Generator: Adobe Illustrator 16.0.0, SVG Export Plug-In . SVG Version: 6.00 Build 0)  -->
<!DOCTYPE svg PUBLIC "-//W3C//DTD SVG 1.1//EN" "http://www.w3.org/Graphics/SVG/1.1/DTD/svg11.dtd">
<svg version="1.1" id="Layer_1" xmlns="http://www.w3.org/2000/svg" xmlns:xlink="http://www.w3.org/1999/xlink" x="0px" y="0px"
	 width="50px" height="50px" viewBox="0 0 50 50" enable-background="new 0 0 50 50" xml:space="preserve">
<g>
	<g>
		<path fill="#828282" stroke="#828282" stroke-miterlimit="10" d="M29.65,21.812c0,1.895-0.604,2.541-1.861,2.541
			c-1.256,0-23.634,0-24.039,0c-0.448,0-1.381-0.5-1.381-1.635c0-1.042,0.972-1.576,1.381-1.576c0.374,0,16.089,0,22.912,0
			c0.322,0,0.277-0.136,0.277-0.293c0-0.144,0-15.357,0-17.637c0-0.236,0.266-1.225,1.33-1.225c1.235,0,1.396,1.012,1.396,1.203
			C29.65,3.374,29.65,19.914,29.65,21.812z"/>
	</g>
	<g>
		<path fill="#828282" stroke="#828282" stroke-miterlimit="10" d="M24.163,48.047H9.926c-0.515-0.029-0.812-0.246-0.969-0.428
			c-0.408-0.484-0.326-1.141-0.316-1.223c0.005-0.047,0.143-2.035,1.029-3.867c0.731-1.512,2.277-3.684,2.34-3.785l0.19-0.287
			l0.333,0.078c0.024,0.01,2.233,0.41,4.917,0.41c1.516,0,2.897-0.119,4.112-0.375l0.326-0.07l0.208,0.27
			c0.939,1.281,1.772,2.861,2.392,4.086c0.858,1.688,1.034,3.48,1.038,3.566c0.004,0.049,0.068,0.734-0.358,1.219
			C24.991,47.82,24.675,48.047,24.163,48.047z"/>
	</g>
	<g>
		<path fill="#828282" stroke="#828282" stroke-width="0.9438" stroke-miterlimit="10" d="M29.271,33.782
			c-0.121-0.189,1.569-3.853,1.569-3.853c6.533,2.861,7.485-4.978,7.485-5.139l0.546-0.304h3.651v0.504
			c0,3.623-1.717,6.528-3.441,7.758C34.703,35.854,30.014,34.965,29.271,33.782z"/>
	</g>
	<g>
		<path fill="#828282" stroke="#828282" stroke-miterlimit="10" d="M17.122,40.068c-14.198,0-14.359-11.957-14.359-12.072
			c0-0.283,0.232-0.5,0.516-0.5h27.698c0.293,0,0.519,0.23,0.519,0.5C31.5,28.111,31.342,40.068,17.122,40.068z"/>
	</g>
	<g>
		<path fill="#828282" stroke="#828282" stroke-miterlimit="10" d="M44.425,25.005c-0.927,0-7.194,0-9.909,0
			c-0.98,0-1.266-0.251-1.266-1.136c0-4.49,0-20.21,0-20.387c0-0.585,0.35-1.037,1.354-1.037c0.236,0,6.903,0,9.781,0
			c1.098,0,1.395,0.217,1.395,1.146c0,4.019,0,19.791,0,20.408C45.773,24.697,45.596,25.005,44.425,25.005z"/>
	</g>
</g>
</svg>
