<?xml version="1.0" encoding="utf-8"?>
<!-- Generator: Adobe Illustrator 16.0.4, SVG Export Plug-In . SVG Version: 6.00 Build 0)  -->
<!DOCTYPE svg PUBLIC "-//W3C//DTD SVG 1.1//EN" "http://www.w3.org/Graphics/SVG/1.1/DTD/svg11.dtd">
<svg version="1.1" id="Layer_1" xmlns="http://www.w3.org/2000/svg" xmlns:xlink="http://www.w3.org/1999/xlink" x="0px" y="0px"
	 width="347.334px" height="70px" viewBox="0 0 347.334 70" enable-background="new 0 0 347.334 70" xml:space="preserve">
<g>
	<path fill="#353535" d="M37.464,5.265c0,7.682,12.882,16.211,12.882,24.988c0,0,0,0.846-0.356,1.75
		c12.042,2.542,20.578,8.534,20.578,15.555c0,9.438-15.211,17.246-34.064,17.246c-19.247,0-34.171-7.682-34.171-16.884
		c0-7.018,9.243-12.712,20.401-15.732c0,3.877,12.695,16.158,13.002,21.117c0.035,0.57,0.145,1.05,0,1.634
		c2.744-1.451,2.744-5.992,2.744-5.992c0-10.767-12.346-15.546-12.346-26.138c0-4.116,1.911-7.136,3.638-7.984v2.963
		c0,7.683,13.359,16.273,13.359,23.295v2.302c3.099-1.21,3.099-6.964,3.099-6.964c0-9.68-12.402-15.065-12.402-26.138
		c0-4.108,1.908-7.132,3.635-7.985V5.265z"/>
	<path fill="#353535" d="M97.641,61.828c-6.496,0-11.206-1.872-11.206-1.872V48.521h1.61c0.833,6.047,5.363,10.644,10.546,10.644
		c5.19,0,8.825-2.903,8.825-7.496c0-4.899-4.827-7.135-8.044-8.766l-4.651-2.36c-4.409-2.239-7.982-5.867-7.982-10.942
		c0-6.351,4.644-11.792,13.525-11.792c6.078,0,11.084,2.054,11.084,2.054v10.214h-1.61c-0.953-5.439-3.932-9.734-10.01-9.734
		c-4.53,0-7.211,3.148-7.211,6.351c0,4.173,2.861,6.047,6.199,7.739l4.651,2.356c4.226,2.185,9.468,5.806,9.468,11.977
		C112.834,56.625,107.472,61.828,97.641,61.828"/>
	<path fill="#353535" d="M127.686,49.368c-1.257,0.546-3.462,1.572-3.462,4.475c0,1.573,0.891,4.115,3.995,4.115
		c1.492,0,3.572-0.85,5.068-2.06v-8.949L127.686,49.368z M125.233,61.583c-4.046,0-6.673-2.723-6.673-6.769
		c0-2.903,2.091-5.143,6.673-6.836l8.054-2.958v-2.55c0-3.801-1.734-6.16-4.357-6.16c-1.786,0-3.573,0.909-4.471,2.359
		c-0.353,0.539-0.415,1.33-0.415,1.933c0,1.025,0.653,2.234,0.653,2.234l-3.929,1.818c-0.477-0.847-1.075-2.115-1.075-3.39
		c0-0.239,0.059-0.48,0.059-0.663c0.297-2.175,2.149-3.629,4.651-5.139c2.439-1.514,4.526-1.938,6.02-1.938
		c7.508,0,8.818,6.042,8.818,8.043v12.519c0,1.991,0.18,3.262,1.79,3.262c0.477,0,0.774,0,1.431-0.241l1.43-0.483v1.813
		l-8.348,3.145c-1.251-0.902-1.845-2.54-2.08-3.928C131.498,59.354,128.101,61.583,125.233,61.583"/>
	<path fill="#353535" d="M145.741,60.976v-1.441l1.966-0.369c1.196-0.246,2.025-1.151,2.025-2.364V40.66
		c0-1.39-0.649-2.114-1.849-2.114c-0.411,0-0.892,0.062-1.368,0.241l-0.774,0.301v-1.811l8.576-3.751h1.261v4.477
		c2.612-2.968,5.715-4.477,8.459-4.477c6.082,0,8.998,4.418,8.998,9.553v13.722c0,1.213,0.898,2.185,2.09,2.364l2.021,0.369v1.441
		h-14.188v-1.441l1.977-0.369c1.188-0.246,2.143-1.151,2.143-2.364V43.146c0-1.821-0.48-5.868-5.246-5.868
		c-2.626,0-4.831,1.634-6.14,2.845v16.679c0,1.213,0.957,2.118,2.146,2.364l1.962,0.369v1.441H145.741z"/>
	<path fill="#353535" d="M197.711,37.22h-8.342v14.996c0,3.323,1.729,5.134,4.229,5.134c1.013,0,2.623-0.297,4.112-1.147
		l0.656,1.453l-5.366,3.447c0,0-1.071,0.177-1.604,0.177c-5.19,0-7.989-3.079-7.989-9.61V37.22h-4.351v-1.511
		c0,0,6.555-2.543,9.12-8.77h1.191v7.675h9.417L197.711,37.22z"/>
	<path fill="#353535" d="M210.217,49.368c-1.252,0.546-3.456,1.572-3.456,4.475c0,1.573,0.884,4.115,3.994,4.115
		c1.486,0,3.573-0.85,5.062-2.06v-8.949L210.217,49.368z M207.77,61.583c-4.05,0-6.669-2.723-6.669-6.769
		c0-2.903,2.083-5.143,6.669-6.836l8.048-2.958v-2.55c0-3.801-1.731-6.16-4.35-6.16c-1.79,0-3.58,0.909-4.472,2.359
		c-0.359,0.539-0.418,1.33-0.418,1.933c0,1.025,0.66,2.234,0.66,2.234l-3.939,1.818c-0.478-0.847-1.071-2.115-1.071-3.39
		c0-0.239,0.064-0.48,0.064-0.663c0.295-2.175,2.144-3.629,4.646-5.139c2.445-1.514,4.53-1.938,6.016-1.938
		c7.519,0,8.828,6.042,8.828,8.043v12.519c0,1.991,0.177,3.262,1.787,3.262c0.473,0,0.773,0,1.431-0.241l1.431-0.483v1.813
		l-8.346,3.145c-1.251-0.902-1.845-2.54-2.083-3.928C214.031,59.354,210.631,61.583,207.77,61.583"/>
	<path fill="#353535" d="M228.271,60.976v-1.441l1.97-0.369c1.191-0.246,2.028-1.151,2.028-2.364V40.66
		c0-1.39-0.657-2.114-1.849-2.114c-0.419,0-0.899,0.062-1.372,0.241l-0.777,0.301v-1.811l8.586-3.751h1.247v4.477
		c2.627-2.968,5.727-4.477,8.467-4.477c6.071,0,9.002,4.418,9.002,9.553v13.722c0,1.213,0.891,2.185,2.083,2.364l2.021,0.369v1.441
		h-14.179v-1.441l1.97-0.369c1.189-0.246,2.14-1.151,2.14-2.364V43.146c0-1.821-0.477-5.868-5.245-5.868
		c-2.619,0-4.824,1.634-6.138,2.845v16.679c0,1.213,0.955,2.118,2.143,2.364l1.974,0.369v1.441H228.271z"/>
	<path fill="#353535" d="M277.504,36.071c-4.292,0-8.701,2.775-8.701,10.878c0,6.772,3.338,10.886,8.58,10.886
		c3.161,0,5.128-1.877,5.608-2.841V39.271C282.214,37.277,280.006,36.071,277.504,36.071 M274.819,61.583
		c-5.599,0-12.34-4.233-12.34-13.421c0-8.04,6.141-14.636,14.371-14.636c2.74,0,4.707,0.548,6.141,1.153V20.83
		c0-1.451-0.777-1.871-1.731-1.871c-0.536,0-1.13,0.121-1.669,0.297l-1.191,0.427v-1.818l9.302-3.987h1.251v39.844
		c0,2.301,0.352,3.628,1.962,3.628c0.48,0,0.774,0,1.428-0.241l1.434-0.483v1.813l-8.342,3.145c-1.312-0.902-1.97-2.598-2.266-3.987
		C281.616,59.286,278.813,61.583,274.819,61.583"/>
	<path fill="#353535" d="M314.695,42.903v-0.121c0-4.534-2.502-6.718-5.48-6.718c-3.345,0-5.847,2.239-6.559,6.839H314.695z
		 M302.477,45.38v0.305c-0.06,8.037,4.471,12.087,10.131,12.087c2.861,0,5.487-1.085,7.575-2.716v2.415
		c-2.385,2.239-6.02,4.112-10.491,4.112c-9.299,0-13.41-7.073-13.41-13.784c0-7.864,5.901-14.272,13.528-14.272
		c6.257,0,11.146,4.477,11.146,11.066v0.787H302.477z"/>
	<path fill="#353535" d="M324.467,60.976v-1.441l1.97-0.369c1.141-0.246,2.031-1.151,2.031-2.364V40.66
		c0-1.39-0.659-2.114-1.852-2.114c-0.414,0-0.895,0.062-1.368,0.241l-0.781,0.301v-1.811l8.467-3.751h1.254v5.866
		c2.146-4.23,4.71-5.987,7.633-5.987c2.385,0,2.979,0.606,2.979,0.606v6.414h-1.192c-0.3-1.694-1.435-2.543-3.22-2.543
		c-1.908,0-4.289,0.545-5.961,4.05v14.868c0,1.213,1.192,2.185,2.322,2.364l2.868,0.369v1.441H324.467z"/>
</g>
</svg>
