<?xml version="1.0" encoding="utf-8"?>
<!-- Generator: Adobe Illustrator 16.0.4, SVG Export Plug-In . SVG Version: 6.00 Build 0)  -->
<!DOCTYPE svg PUBLIC "-//W3C//DTD SVG 1.1//EN" "http://www.w3.org/Graphics/SVG/1.1/DTD/svg11.dtd">
<svg version="1.1" id="Layer_1" xmlns="http://www.w3.org/2000/svg" xmlns:xlink="http://www.w3.org/1999/xlink" x="0px" y="0px"
	 width="30px" height="30px" viewBox="0 0 30 30" enable-background="new 0 0 30 30" xml:space="preserve">
<g>
	<path fill="#FFFFFF" d="M24.943,16.097l-9.274,9.275c-0.343,0.327-0.812,0.525-1.296,0.525s-0.94-0.199-1.283-0.525l-1.068-1.069
		c-0.342-0.341-0.542-0.812-0.542-1.297c0-0.483,0.2-0.955,0.542-1.296l4.174-4.175H6.167C5.14,17.536,4.5,16.681,4.5,15.713v-1.824
		c0-0.968,0.64-1.823,1.667-1.823h10.028l-4.174-4.189C11.68,7.551,11.48,7.08,11.48,6.596c0-0.483,0.2-0.955,0.542-1.281
		l1.068-1.07c0.343-0.341,0.799-0.541,1.283-0.541c0.484,0,0.954,0.2,1.296,0.54l9.274,9.275c0.343,0.326,0.527,0.797,0.527,1.281
		S25.286,15.756,24.943,16.097z"/>
</g>
</svg>
