<?xml version="1.0" encoding="utf-8"?>
<!-- Generator: Adobe Illustrator 16.0.4, SVG Export Plug-In . SVG Version: 6.00 Build 0)  -->
<!DOCTYPE svg PUBLIC "-//W3C//DTD SVG 1.1//EN" "http://www.w3.org/Graphics/SVG/1.1/DTD/svg11.dtd">
<svg version="1.1" id="Layer_1" xmlns="http://www.w3.org/2000/svg" xmlns:xlink="http://www.w3.org/1999/xlink" x="0px" y="0px"
	 width="40px" height="40px" viewBox="0 0 40 40" enable-background="new 0 0 40 40" xml:space="preserve">
<path fill="#3F3F3F" d="M36.505,0.996H3.495c-1.378,0-2.5,1.122-2.5,2.5v33.009c0,1.379,1.122,2.5,2.5,2.5h33.01
	c1.379,0,2.5-1.121,2.5-2.5V3.496C39.005,2.117,37.884,0.996,36.505,0.996z"/>
<path fill="#FFFFFF" d="M27.507,23.547l-0.768,0.767c-0.092,0.092-0.215,0.153-0.353,0.153c-0.122,0-0.262-0.062-0.353-0.153
	L20,18.28l-6.033,6.033c-0.093,0.092-0.231,0.153-0.353,0.153c-0.123,0-0.261-0.062-0.354-0.153l-0.767-0.767
	c-0.093-0.093-0.154-0.231-0.154-0.353c0-0.124,0.062-0.263,0.154-0.353l7.153-7.154c0.092-0.092,0.23-0.154,0.353-0.154
	s0.261,0.062,0.353,0.154l7.155,7.152c0.091,0.091,0.153,0.229,0.153,0.354C27.66,23.315,27.599,23.454,27.507,23.547z"/>
</svg>
