<?xml version="1.0" encoding="utf-8"?>
<!-- Generator: Adobe Illustrator 16.0.4, SVG Export Plug-In . SVG Version: 6.00 Build 0)  -->
<!DOCTYPE svg PUBLIC "-//W3C//DTD SVG 1.1//EN" "http://www.w3.org/Graphics/SVG/1.1/DTD/svg11.dtd">
<svg version="1.1" id="Layer_1" xmlns="http://www.w3.org/2000/svg" xmlns:xlink="http://www.w3.org/1999/xlink" x="0px" y="0px"
	 width="18.667px" height="20px" viewBox="0 0 18.667 20" enable-background="new 0 0 18.667 20" xml:space="preserve">
<g>
	<path fill="#828282" d="M18.37,14.283l-0.836,1.432c-0.455,0.795-1.48,1.068-2.277,0.611l-3.463-1.99v3.996
		c0,0.912-0.756,1.668-1.666,1.668H8.462c-0.911,0-1.667-0.756-1.667-1.668v-3.996l-3.463,1.99
		c-0.794,0.457-1.823,0.184-2.279-0.611L0.22,14.283c-0.456-0.795-0.183-1.822,0.612-2.279L4.295,10L0.833,7.994
		C0.038,7.539-0.236,6.51,0.22,5.717l0.833-1.433C1.509,3.49,2.538,3.217,3.332,3.672l3.463,1.993V1.667
		C6.795,0.756,7.551,0,8.462,0h1.666c0.91,0,1.666,0.756,1.666,1.667v3.998l3.463-1.993c0.797-0.455,1.822-0.182,2.277,0.612
		l0.836,1.433c0.455,0.793,0.182,1.822-0.611,2.277L14.292,10l3.467,2.004C18.552,12.461,18.825,13.488,18.37,14.283z"/>
</g>
</svg>
