<?xml version="1.0" encoding="utf-8"?>
<!-- Generator: Adobe Illustrator 16.0.4, SVG Export Plug-In . SVG Version: 6.00 Build 0)  -->
<!DOCTYPE svg PUBLIC "-//W3C//DTD SVG 1.1//EN" "http://www.w3.org/Graphics/SVG/1.1/DTD/svg11.dtd">
<svg version="1.1" id="Layer_1" xmlns="http://www.w3.org/2000/svg" xmlns:xlink="http://www.w3.org/1999/xlink" x="0px" y="0px"
	 width="35px" height="44.8px" viewBox="7.5 0 35 44.8" enable-background="new 7.5 0 35 44.8" xml:space="preserve">
<path fill="#FE696B" stroke="#C03537" stroke-width="1.4684" stroke-miterlimit="10" d="M11.448,10.281
	c2.945-5.655,9.275-8.998,15.588-8.208c4.06,0.506,7.463,2.299,10.085,5.449c3.032,3.635,4.184,7.831,3.448,12.515
	c-0.41,2.597-1.354,5.028-2.519,7.37C35.353,32.835,26.045,43.266,25.222,43.5c-0.324,0-9.16-9.397-11.83-14.17
	c-1.491-2.669-2.725-5.455-3.363-8.463C9.18,16.016,10.489,12.123,11.448,10.281z"/>
<path fill="#C03537" d="M24.761,26.658c-5.224,0.017-9.483-4.223-9.494-9.448c-0.013-5.232,4.215-9.473,9.451-9.484
	c5.232-0.012,9.478,4.228,9.478,9.46C34.202,22.392,29.97,26.64,24.761,26.658z"/>
<path fill="#FFFFFF" d="M25.399,26.48c-4.834,0.003-8.761-3.932-8.758-8.764c0-4.841,3.922-8.756,8.765-8.75
	c4.84,0.002,8.758,3.934,8.749,8.774C34.146,22.559,30.222,26.479,25.399,26.48z"/>
</svg>
