<?xml version="1.0" encoding="utf-8"?>
<!-- Generator: Adobe Illustrator 16.0.0, SVG Export Plug-In . SVG Version: 6.00 Build 0)  -->
<!DOCTYPE svg PUBLIC "-//W3C//DTD SVG 1.1//EN" "http://www.w3.org/Graphics/SVG/1.1/DTD/svg11.dtd">
<svg version="1.1" id="Layer_1" xmlns="http://www.w3.org/2000/svg" xmlns:xlink="http://www.w3.org/1999/xlink" x="0px" y="0px"
	 width="50px" height="50px" viewBox="0 0 50 50" enable-background="new 0 0 50 50" xml:space="preserve">
<path fill="#FFFFFF" d="M43.352,2.212c-0.728-0.73-1.699-1.133-2.736-1.133H9.393c-2.13,0-3.863,1.731-3.863,3.86v40.482
	c0,2.128,1.733,3.858,3.863,3.858h11.095c0.276,0,0.5-0.225,0.5-0.5v-8.391c0-0.285,0.231-0.517,0.515-0.517h7.009
	c0.282,0,0.514,0.231,0.514,0.513l-0.041,8.393c-0.002,0.133,0.052,0.261,0.146,0.354c0.095,0.096,0.222,0.146,0.354,0.146h11.09
	c2.185,0,3.896-1.693,3.896-3.857V4.941C44.475,3.91,44.077,2.941,43.352,2.212z M16.578,30.751c0,0.687-0.557,1.243-1.243,1.243
	h-4.754c-0.686,0-1.242-0.557-1.242-1.243v-3.21c0-0.688,0.556-1.243,1.242-1.243h4.754c0.686,0,1.243,0.556,1.243,1.243V30.751z
	 M16.578,21c0,0.687-0.557,1.243-1.243,1.243h-4.754c-0.686,0-1.242-0.556-1.242-1.243v-3.21c0-0.687,0.556-1.243,1.242-1.243h4.754
	c0.686,0,1.243,0.556,1.243,1.243V21z M16.578,11.5c0,0.687-0.557,1.243-1.243,1.243h-4.754c-0.686,0-1.242-0.556-1.242-1.243V8.29
	c0-0.687,0.556-1.243,1.242-1.243h4.754c0.686,0,1.243,0.556,1.243,1.243V11.5z M28.559,30.751c0,0.687-0.558,1.243-1.244,1.243
	h-4.752c-0.686,0-1.242-0.557-1.242-1.243v-3.21c0-0.688,0.556-1.243,1.242-1.243h4.752c0.688,0,1.244,0.556,1.244,1.243V30.751z
	 M28.559,21c0,0.687-0.558,1.243-1.244,1.243h-4.752c-0.686,0-1.242-0.556-1.242-1.243v-3.21c0-0.687,0.556-1.243,1.242-1.243h4.752
	c0.688,0,1.244,0.556,1.244,1.243V21z M28.559,11.5c0,0.687-0.558,1.243-1.244,1.243h-4.752c-0.686,0-1.242-0.556-1.242-1.243V8.29
	c0-0.687,0.556-1.243,1.242-1.243h4.752c0.688,0,1.244,0.556,1.244,1.243V11.5z M40.059,30.751c0,0.687-0.557,1.243-1.244,1.243
	h-4.752c-0.688,0-1.242-0.557-1.242-1.243v-3.21c0-0.688,0.556-1.243,1.242-1.243h4.752c0.688,0,1.244,0.556,1.244,1.243V30.751z
	 M40.059,21c0,0.687-0.557,1.243-1.244,1.243h-4.752c-0.688,0-1.242-0.556-1.242-1.243v-3.21c0-0.687,0.556-1.243,1.242-1.243h4.752
	c0.688,0,1.244,0.556,1.244,1.243V21z M40.059,11.5c0,0.687-0.557,1.243-1.244,1.243h-4.752c-0.688,0-1.242-0.556-1.242-1.243V8.29
	c0-0.687,0.556-1.243,1.242-1.243h4.752c0.688,0,1.244,0.556,1.244,1.243V11.5z"/>
</svg>
