<?xml version="1.0" encoding="utf-8"?>
<!-- Generator: Adobe Illustrator 16.0.4, SVG Export Plug-In . SVG Version: 6.00 Build 0)  -->
<!DOCTYPE svg PUBLIC "-//W3C//DTD SVG 1.1//EN" "http://www.w3.org/Graphics/SVG/1.1/DTD/svg11.dtd">
<svg version="1.1" id="Layer_1" xmlns="http://www.w3.org/2000/svg" xmlns:xlink="http://www.w3.org/1999/xlink" x="0px" y="0px"
	 width="128px" height="128px" viewBox="0 0 128 128" enable-background="new 0 0 128 128" xml:space="preserve">
<g>
	<g>
		<path fill="#848484" d="M59.431,66.659c0,2.436-2.013,4.448-4.446,4.448H6.056c-2.434,0-4.451-2.013-4.451-4.448V22.178
			c0-2.431,2.018-4.448,4.451-4.448h4.445v-3.333c0-3.061,2.503-5.561,5.568-5.561h2.216c3.063,0,5.566,2.5,5.566,5.561v3.333
			h13.342v-3.333c0-3.061,2.498-5.561,5.559-5.561h2.221c3.063,0,5.561,2.5,5.561,5.561v3.333h4.451
			c2.433,0,4.446,2.018,4.446,4.448V66.659z M54.985,66.659V31.077H6.056v35.582H54.985z M19.401,14.397
			c0-0.627-0.486-1.113-1.115-1.113H16.07c-0.629,0-1.115,0.486-1.115,1.113v10.004c0,0.63,0.485,1.11,1.115,1.11h2.216
			c0.629,0,1.115-0.48,1.115-1.11V14.397z M46.083,14.397c0-0.627-0.48-1.113-1.11-1.113h-2.221c-0.625,0-1.115,0.486-1.115,1.113
			v10.004c0,0.63,0.491,1.11,1.115,1.11h2.221c0.629,0,1.11-0.48,1.11-1.11V14.397z"/>
		<g>
			<path fill="#848484" d="M36.411,38.968c1.011,1.338,1.522,2.716,1.522,4.134h-2.87c-0.168-0.915-0.446-1.628-0.817-2.144
				c-0.699-0.966-1.76-1.449-3.177-1.449c-1.622,0-2.91,0.748-3.867,2.248c-0.956,1.497-1.486,3.643-1.59,6.436
				c0.664-0.979,1.501-1.71,2.513-2.191c0.922-0.431,1.953-0.644,3.092-0.644c1.934,0,3.619,0.617,5.056,1.852
				c1.437,1.233,2.161,3.075,2.161,5.523c0,2.097-0.684,3.95-2.047,5.566s-3.311,2.423-5.833,2.423c-2.156,0-4.02-0.817-5.586-2.456
				c-1.571-1.638-2.354-4.394-2.354-8.27c0-2.87,0.347-5.301,1.046-7.298c1.343-3.824,3.796-5.734,7.365-5.734
				C33.601,36.963,35.395,37.632,36.411,38.968z M34.235,56.607c0.758-1.025,1.134-2.237,1.134-3.632
				c0-1.182-0.336-2.308-1.016-3.375c-0.674-1.068-1.903-1.601-3.688-1.601c-1.244,0-2.339,0.412-3.276,1.239
				c-0.942,0.828-1.413,2.071-1.413,3.737c0,1.459,0.426,2.686,1.283,3.68c0.853,0.994,2.038,1.49,3.549,1.49
				C32.337,58.144,33.477,57.633,34.235,56.607z"/>
		</g>
	</g>
	<g>
		<path fill="#848484" d="M115.494,54.742v-2.595c0-0.937,0.763-1.7,1.699-1.7s1.696,0.763,1.696,1.7v6.014h0.005l7.85,7.91
			c0.317,0.317,0.501,0.762,0.491,1.215c-0.005,0.46-0.198,0.887-0.535,1.201c-0.59,0.588-1.72,0.617-2.364-0.018L107.4,51.418
			L90.589,68.837c-0.353,0.342-0.778,0.519-1.225,0.519c-0.426,0-0.843-0.167-1.169-0.462c-0.338-0.329-0.525-0.753-0.53-1.206
			c-0.006-0.457,0.163-0.883,0.479-1.21l18.037-18.668c0.119-0.126,0.5-0.525,1.145-0.525c0.525,0.002,0.962,0.188,1.273,0.513
			L115.494,54.742L115.494,54.742z"/>
		<g>
			<g>
				<g>
					<g>
						<path fill="#848484" d="M105.057,89.668h-9.19c-0.792,0-1.427-0.232-1.883-0.693c-0.753-0.756-0.748-1.876-0.743-2.543v-15.83
							c0-0.917,0.411-1.318,0.803-1.708c1.557-1.566,5.393-5.603,8.198-8.552c1.744-1.833,3.117-3.281,3.365-3.529
							c1.07-1.068,2.844-1.053,3.9,0.084c0.619,0.671,8.659,9.151,11.236,11.731c0.777,0.778,1.016,1.308,1.001,2.272v15.625
							c0,2.832-2.047,3.137-2.93,3.137h-8.886l0.01-8.254l-4.704-0.003c-0.153,0.037-0.178,0.117-0.178,0.173V89.668L105.057,89.668
							z"/>
					</g>
				</g>
			</g>
		</g>
		<path fill="#848484" d="M90.708,119.106H79.03v-10.663c0.006-0.102-0.021-0.285-0.099-0.364c-0.069-0.07-0.224-0.082-0.308-0.082
			h-6.169c-0.128,0-0.307,0.022-0.391,0.111c-0.119,0.124-0.119,0.372-0.119,0.374v10.614H59.877c-0.991,0-1.78-0.285-2.334-0.845
			c-0.942-0.947-0.932-2.38-0.927-3.239v-0.166V93.752c0-1.1,0.441-1.551,0.957-2.074c2.216-2.22,7.593-7.882,11.519-12.019
			c2.105-2.218,3.727-3.923,4.039-4.232c1.339-1.346,3.549-1.326,4.856,0.106c0.856,0.922,11.605,12.262,15.11,15.764
			c1.085,1.093,1.259,1.729,1.259,2.832v21.024C94.36,118.72,91.803,119.106,90.708,119.106z"/>
		<g>
			<g>
				<path fill="#848484" d="M51.124,92.435c-0.595,0-1.165-0.231-1.591-0.647c-0.441-0.424-0.694-0.996-0.704-1.613
					c-0.01-0.617,0.218-1.199,0.645-1.638l24.226-25.084c0.437-0.444,0.978-0.568,1.408-0.667l0.243-0.032
					c0.619,0,1.199,0.235,1.631,0.668l14.271,14.434l-0.264,6.282L75.37,68.332L52.769,91.735
					C52.323,92.181,51.729,92.435,51.124,92.435z"/>
			</g>
		</g>
	</g>
</g>
</svg>
