<?xml version="1.0" encoding="utf-8"?>
<!-- Generator: Adobe Illustrator 16.0.4, SVG Export Plug-In . SVG Version: 6.00 Build 0)  -->
<!DOCTYPE svg PUBLIC "-//W3C//DTD SVG 1.1//EN" "http://www.w3.org/Graphics/SVG/1.1/DTD/svg11.dtd">
<svg version="1.1" id="Layer_1" xmlns="http://www.w3.org/2000/svg" xmlns:xlink="http://www.w3.org/1999/xlink" x="0px" y="0px"
	 width="50px" height="50px" viewBox="0 0 50 50" enable-background="new 0 0 50 50" xml:space="preserve">
<g>
	<path fill="#2A9998" d="M47.807,44.589h-2.363c-0.549-0.002-1.588-0.333-1.588-1.577v-7.144c0-0.412-0.146-0.558-0.562-0.558H6.439
		c-0.281,0-0.294,0.092-0.294,0.271v7.396c0,0.752-0.416,1.553-1.582,1.553H2.127c-0.982,0-1.422-0.764-1.422-1.521V29.775
		c0-0.521,0.36-1.082,1.152-1.082L43.848,28.7V4.708c0-0.653,0.571-1.889,2.733-1.889c2.635,0,2.711,1.695,2.711,1.889v38.293
		C49.292,44.01,48.751,44.589,47.807,44.589z"/>
</g>
<g>
	<path fill="#2A9998" d="M22.43,25.25H3.485c-0.747,0-2.795-0.844-2.795-3.563c0-2.521,1.748-3.566,2.684-3.566h20.915
		c0.511,0,0.859,0.122,1.066,0.373c0.316,0.385,0.208,0.936,0.094,1.519c-0.121,0.61-1.325,3.594-1.462,3.932
		C23.965,23.996,23.452,25.25,22.43,25.25z"/>
</g>
<g>
	<path fill="#2A9998" d="M40.35,25.241H28.964c-0.593,0-1.043-0.065-1.315-0.381c-0.301-0.351-0.266-0.909-0.182-1.458
		c0.561-3.671,2.93-12.256,12.811-12.685c0.002,0,0.002,0,0.002,0c0.594,0,1.06,0.371,1.104,0.844l0.003,12.564
		C41.385,24.644,41.268,25.241,40.35,25.241z"/>
</g>
</svg>
