<?xml version="1.0" encoding="utf-8"?>
<!-- Generator: Adobe Illustrator 16.0.4, SVG Export Plug-In . SVG Version: 6.00 Build 0)  -->
<!DOCTYPE svg PUBLIC "-//W3C//DTD SVG 1.1//EN" "http://www.w3.org/Graphics/SVG/1.1/DTD/svg11.dtd">
<svg version="1.1" id="Layer_1" xmlns="http://www.w3.org/2000/svg" xmlns:xlink="http://www.w3.org/1999/xlink" x="0px" y="0px"
	 width="50px" height="50px" viewBox="0 0 50 50" enable-background="new 0 0 50 50" xml:space="preserve">
<g>
	<g>
		<path fill="#231F20" d="M49.252,43.691c0,1.543-1.252,2.795-2.795,2.795H3.602c-1.543,0-2.795-1.252-2.795-2.795v-9.316
			c0-1.543,1.252-2.795,2.795-2.795H17.14l3.93,3.959c1.077,1.049,2.475,1.631,3.959,1.631c1.484,0,2.882-0.582,3.959-1.631
			l3.96-3.959h13.509c1.543,0,2.795,1.252,2.795,2.795V43.691z M39.383,19.847L26.34,32.891c-0.35,0.378-0.845,0.553-1.311,0.553
			s-0.961-0.175-1.31-0.553L10.676,19.847c-0.553-0.524-0.699-1.339-0.408-2.038c0.291-0.669,0.961-1.135,1.718-1.135h7.453V3.631
			c0-1.019,0.844-1.863,1.863-1.863h7.453c1.019,0,1.863,0.844,1.863,1.863v13.043h7.453c0.757,0,1.427,0.466,1.718,1.135
			C40.081,18.508,39.936,19.323,39.383,19.847z M36.209,39.033c-1.019,0-1.863,0.845-1.863,1.863s0.845,1.863,1.863,1.863
			s1.863-0.845,1.863-1.863S37.228,39.033,36.209,39.033z M43.662,39.033c-1.019,0-1.863,0.845-1.863,1.863s0.845,1.863,1.863,1.863
			s1.863-0.845,1.863-1.863S44.681,39.033,43.662,39.033z"/>
	</g>
</g>
</svg>
