<?xml version="1.0" encoding="utf-8"?>
<!-- Generator: Adobe Illustrator 16.0.0, SVG Export Plug-In . SVG Version: 6.00 Build 0)  -->
<!DOCTYPE svg PUBLIC "-//W3C//DTD SVG 1.1//EN" "http://www.w3.org/Graphics/SVG/1.1/DTD/svg11.dtd">
<svg version="1.1" id="Layer_1" xmlns="http://www.w3.org/2000/svg" xmlns:xlink="http://www.w3.org/1999/xlink" x="0px" y="0px"
	 width="50px" height="50px" viewBox="0 0 50 50" enable-background="new 0 0 50 50" xml:space="preserve">
<path fill="#828282" d="M34.695,9.6V6.248c0-1.174,0.955-2.13,2.128-2.13c1.176,0,2.132,0.956,2.132,2.13v7.482l9.302,9.532
	c0.351,0.353,0.542,0.82,0.539,1.316c-0.002,0.496-0.197,0.96-0.55,1.309c-0.705,0.699-1.932,0.691-2.627-0.014L24.963,5.069
	L4.431,26.332c-0.354,0.367-0.829,0.57-1.334,0.57c-0.476,0-0.933-0.185-1.288-0.52c-0.36-0.345-0.562-0.807-0.571-1.302
	c-0.01-0.497,0.175-0.968,0.52-1.326L23.613,1.124c0.275-0.287,0.65-0.389,0.924-0.463c0.083-0.022,0.162-0.043,0.229-0.069
	l0.182-0.034c0.5,0,0.967,0.196,1.317,0.551L34.695,9.6z"/>
<path fill="#828282" d="M40.808,24.723c-3.171-3.176-12.916-13.44-13.64-14.23c-0.563-0.608-1.296-0.942-2.063-0.942l-0.113,0.002
	c-0.693,0.026-1.367,0.329-1.9,0.856c-0.259,0.262-1.546,1.617-3.26,3.421c-3.464,3.647-8.699,9.159-10.741,11.216
	c-0.468,0.463-0.838,0.829-0.838,1.747V45.82l0,0.149c-0.004,0.786-0.011,1.976,0.771,2.761c0.458,0.462,1.111,0.695,1.954,0.695
	H21.36v-8.801c0,0-0.07-1.197,1.177-1.197c0.737,0,1.761,0,2.736,0c1.215,0,2.359,0,2.825,0.002c1.151,0,1.084,1.105,1.084,1.105
	v8.891c4.774,0.001,8.733,0.004,9.605,0.02h0.009c1.151,0,3.083-0.435,3.083-3.348V27.133C41.879,26.188,41.73,25.644,40.808,24.723
	z"/>
</svg>
