<?xml version="1.0" encoding="utf-8"?>
<!-- Generator: Adobe Illustrator 16.0.4, SVG Export Plug-In . SVG Version: 6.00 Build 0)  -->
<!DOCTYPE svg PUBLIC "-//W3C//DTD SVG 1.1//EN" "http://www.w3.org/Graphics/SVG/1.1/DTD/svg11.dtd">
<svg version="1.1" id="Layer_1" xmlns="http://www.w3.org/2000/svg" xmlns:xlink="http://www.w3.org/1999/xlink" x="0px" y="0px"
	 width="30px" height="30px" viewBox="0 0 30 30" enable-background="new 0 0 30 30" xml:space="preserve">
<g>
	<path d="M26.881,27.211c0,1.049-0.85,1.899-1.901,1.899H5.975c-1.049,0-1.901-0.851-1.901-1.899V15.805
		c0-1.048,0.852-1.899,1.901-1.899h0.633v-3.802c0-4.87,4-8.87,8.87-8.87c4.872,0,8.871,4,8.871,8.87v3.802h0.631
		c1.052,0,1.901,0.851,1.901,1.899V27.211z M20.546,13.906v-3.802c0-2.791-2.276-5.069-5.068-5.069
		c-2.791,0-5.068,2.278-5.068,5.069v3.802H20.546z"/>
</g>
</svg>
