<?xml version="1.0" encoding="utf-8"?>
<!-- Generator: Adobe Illustrator 16.0.4, SVG Export Plug-In . SVG Version: 6.00 Build 0)  -->
<!DOCTYPE svg PUBLIC "-//W3C//DTD SVG 1.1//EN" "http://www.w3.org/Graphics/SVG/1.1/DTD/svg11.dtd">
<svg version="1.1" id="Layer_1" xmlns="http://www.w3.org/2000/svg" xmlns:xlink="http://www.w3.org/1999/xlink" x="0px" y="0px"
	 width="270px" height="70px" viewBox="0 0 270 70" enable-background="new 0 0 270 70" xml:space="preserve">
<g id="Logo_Intelimetrica_7_">
	<g id="R53jNV_7_">
		<path fill-rule="evenodd" clip-rule="evenodd" fill="#353535" d="M147.313,40.64c0,0,4.059-3.178,8.922-2.103
			c3.208,0.708,4.041,2.496,4.041,2.496s3.733-3.084,7.371-2.793c3.857,0.31,5.823,2.56,5.977,6.828
			c0.148,4.209,0.08,13.806,0.08,13.806h-5.355c0,0,0.042-9.928-0.027-13.036c-0.062-2.821-1.874-3.996-4.479-2.907
			c-1.93,0.8-3.129,1.682-3.129,4.452c0,3.416-0.044,11.491-0.044,11.491h-5.233c0,0,0.018-9.691-0.006-12.657
			c-0.023-2.566-0.882-3.588-2.928-3.576c-2.459,0.023-4.763,1.856-4.78,3.872c-0.03,3.525,0.018,12.361,0.018,12.361h-5.204
			l-0.053-20.743h4.766L147.313,40.64z"/>
		<path fill-rule="evenodd" clip-rule="evenodd" fill="#353535" d="M68.621,38.131h4.89c0,0,0.071,1.193,0.071,2.506
			c2.522-1.831,5.76-2.672,8.483-2.219c3.683,0.605,5.654,2.654,5.743,6.366c0.104,4.274,0.062,14.09,0.062,14.09h-5.142
			c0,0,0.042-9.419-0.018-12.314c-0.065-3.377-1.957-4.712-5.216-3.776c-2.7,0.775-3.748,2.179-3.748,5.005
			c0,3.177,0.113,11.086,0.113,11.086l-5.24,0.039V38.131z"/>
		<path fill-rule="evenodd" clip-rule="evenodd" fill="#353535" d="M241.735,58.937c-0.877-0.039-1.928,0.003-2.942-0.157
			c-7.602-1.208-11.444-10.168-7.021-16.559c2.646-3.826,6.838-3.959,10.952-3.987c0.956-0.009,1.912,0.272,2.871,0.293
			c1.202,0.02,1.699,0.459,1.711,1.734c0.018,2.617,0.086,2.623-2.51,2.41c-1.438-0.113-2.848-0.317-4.319-0.071
			c-3.563,0.586-5.085,2.386-4.981,6.092c0.101,3.561,2.084,5.77,5.506,5.997c1.51,0.104,3.031,0.101,4.541-0.219
			c0.609-0.131,1.77-0.705,1.66,0.615c-0.098,1.16,1.057,2.815-1,3.445C244.793,58.963,243.333,58.839,241.735,58.937z"/>
		<path fill-rule="evenodd" clip-rule="evenodd" fill="#353535" d="M263.131,38.754c-3.422-1.088-12.634,0.449-12.634,0.449
			l0.062,4.029c0,0,3.946-0.63,5.927-0.758c1.643-0.106,3.321-0.026,4.819,0.853c1.026,0.604,1.065,2.652,1.065,2.652
			s-7.078,0.019-9.535,0.829c-2.966,0.974-4.203,2.889-4.097,6.125c0.095,2.868,1.552,4.76,4.399,5.509
			c2.862,0.751,5.725,0.733,8.513-0.397c0.634-0.254,1.208-0.669,1.886-0.041c1.119,1.036,2.483,1.048,3.887,0.829
			c0.018-4.985,0.035-9.973,0.051-14.955C267.316,41.066,265.457,39.494,263.131,38.754z M261.816,53.451
			c-1.243,0.609-3.179,1.364-4.481,1.272c-2.262-0.012-3.481-0.834-3.321-2.312c0.195-1.838,1.587-2.234,3.149-2.247
			c1.169-0.012,4.159,0.048,4.529,0.223C261.985,50.526,261.816,51.542,261.816,53.451z"/>
		<path fill-rule="evenodd" clip-rule="evenodd" fill="#353535" d="M191.931,39.577c-5.775-3.882-14.241-0.439-15.582,6.338
			c-1.101,5.559,0.871,10.502,5.254,12.106c3.875,1.421,12.971,0.436,12.971,0.436V54.49c0,0-5.917,0.35-7.978,0.192
			c-1.939-0.154-3.783-0.485-4.846-2.445c-0.547-1.012-0.432-1.684,1.006-1.634c1.794,0.068,3.615,0.018,5.409,0.018
			c1.797,0,3.6,0.012,5.393-0.006c0.584-0.006,1.152,0.131,1.46-0.734C196.119,46.832,194.524,41.317,191.931,39.577z
			 M181.725,47.046c-0.403-1.173,0.18-2.31,0.701-3.031c1.596-2.215,5.844-1.995,7.107,0.322c0.589,1.087,0.823,1.536,0.436,2.709
			C188.233,47.046,183.403,47.046,181.725,47.046z"/>
		<path fill-rule="evenodd" clip-rule="evenodd" fill="#353535" d="M118.523,39.577c-5.778-3.882-14.241-0.439-15.582,6.338
			c-1.101,5.559,0.971,10.502,5.352,12.106c3.877,1.421,13.081,0.436,13.081,0.436V54.49c0,0-6.024,0.35-8.087,0.192
			c-1.936-0.154-3.831-0.485-4.899-2.445c-0.545-1.012-0.456-1.684,0.985-1.634c1.791,0.068,3.603,0.018,5.394,0.018
			c1.797,0,3.597,0.012,5.39-0.006c0.586-0.006,1.143,0.131,1.457-0.734C122.714,46.832,121.116,41.317,118.523,39.577z
			 M108.313,47.046c-0.402-1.173,0.181-2.31,0.702-3.031c1.598-2.215,5.843-1.995,7.11,0.322c0.586,1.087,0.823,1.536,0.433,2.709
			C114.823,47.046,109.992,47.046,108.313,47.046z"/>
		<path fill-rule="evenodd" clip-rule="evenodd" fill="#353535" d="M215.171,58.788h-5.322V38.432h5.088v1.989
			c0,0,2.191-2.159,5.509-2.164c-0.026,0.937,0.06,2.75,0.06,4.1c-2.983-0.13-5.133,2.345-5.156,3.028
			C215.349,46.255,215.171,58.788,215.171,58.788z"/>
		<rect x="222.767" y="38.432" fill-rule="evenodd" clip-rule="evenodd" fill="#353535" width="5.088" height="20.356"/>
		<rect x="222.767" y="31.385" fill-rule="evenodd" clip-rule="evenodd" fill="#353535" width="5.088" height="3.526"/>
		<rect x="133.507" y="38.432" fill-rule="evenodd" clip-rule="evenodd" fill="#353535" width="5.092" height="20.356"/>
		<rect x="124.112" y="31.385" fill-rule="evenodd" clip-rule="evenodd" fill="#353535" width="5.091" height="27.403"/>
		<rect x="133.507" y="31.385" fill-rule="evenodd" clip-rule="evenodd" fill="#353535" width="5.092" height="3.526"/>
		<rect x="59.522" y="38.432" fill-rule="evenodd" clip-rule="evenodd" fill="#353535" width="5.085" height="20.356"/>
		<rect x="59.522" y="31.385" fill-rule="evenodd" clip-rule="evenodd" fill="#353535" width="5.085" height="3.526"/>
		<polygon fill="#353535" points="181.662,36.474 181.662,32.741 189.098,29.831 189.098,33.568 		"/>
		<path fill="#353535" d="M42.04,21.991H19.613c0,0-1.477-0.135-1.477,1.043c0,0.91-0.044,1.237-0.044,2.266
			c0,1.541-1.089,2.719-3.333,2.891c-2.374,0.182-6.083,0.149-8.211,0.122c-1.003-0.01-1.835,0.388-1.835,1.721
			c0,1.339,0,27.479,0,27.479c0,4.769,4.549,10.28,9.321,10.28h7.51V52.102c0-1.193,1.009-2.315,2.202-2.315h7.024
			c1.199,0,2.128,1.122,2.128,2.315v15.691h9.141c4.769,0,8.081-5.512,8.081-10.28V29.507C50.121,24.735,46.808,21.991,42.04,21.991
			z M32.508,44.879c0,1.195-0.971,2.167-2.164,2.167H23.71c-1.193,0-2.167-0.972-2.167-2.167v-6.631
			c0-1.197,0.974-2.167,2.167-2.167h6.633c1.193,0,2.164,0.97,2.164,2.167V44.879z"/>
	</g>
	<path fill-rule="evenodd" clip-rule="evenodd" fill="#353535" d="M92.015,35.693c0,0,0,16,0,17.723s-0.187,5.372,4.023,5.372h4.194
		v-3.522c0,0-0.764,0-1.862,0c-1.102,0-2.048-0.77-2.048-2.134c0-1.365,0-10,0-10h4.694v-3.917h-4.47l-1.249-3.521H92.015z"/>
	<path fill-rule="evenodd" clip-rule="evenodd" fill="#353535" d="M198.493,35.693c0,0,0,16,0,17.723s-0.471,5.372,3.736,5.372
		h4.487v-3.522c0,0-1.06,0-2.158,0c-1.098,0-1.761-0.77-1.761-2.134c0-1.365,0-10,0-10h4.7v-3.917h-4.757l-1.252-3.521H198.493z"/>
	<rect x="21.937" y="6.332" fill="#353535" width="1.566" height="1.958"/>
	<path fill="#353535" d="M13.717,23.462c0,0.919-0.746,1.656-1.658,1.656H3.632c-0.917,0-1.658-0.737-1.658-1.656v-8.426
		c0-0.917,0.74-1.661,1.658-1.661h8.427c0.912,0,1.658,0.743,1.658,1.661V23.462z"/>
	<path fill-rule="evenodd" clip-rule="evenodd" fill="#353535" d="M26.638,18.87c0,0.641-0.524,1.163-1.166,1.163h-3.153
		c-0.642,0-1.16-0.522-1.16-1.163v-3.151c0-0.644,0.518-1.167,1.16-1.167h3.153c0.642,0,1.166,0.522,1.166,1.167V18.87z"/>
	<path fill-rule="evenodd" clip-rule="evenodd" fill="#353535" d="M20.762,12.402c0,0.539-0.432,0.974-0.971,0.974h-2.753
		c-0.539,0-0.977-0.435-0.977-0.974V9.653c0-0.537,0.438-0.976,0.977-0.976h2.753c0.539,0,0.971,0.438,0.971,0.976V12.402z"/>
	<path fill-rule="evenodd" clip-rule="evenodd" fill="#353535" d="M12.936,4.794c0,0.418-0.34,0.756-0.752,0.756H9.771
		c-0.415,0-0.755-0.337-0.755-0.756V2.386c0-0.417,0.34-0.753,0.755-0.753h2.413c0.412,0,0.752,0.336,0.752,0.753V4.794z"/>
</g>
</svg>
