<?xml version="1.0" encoding="utf-8"?>
<!-- Generator: Adobe Illustrator 16.0.4, SVG Export Plug-In . SVG Version: 6.00 Build 0)  -->
<!DOCTYPE svg PUBLIC "-//W3C//DTD SVG 1.1//EN" "http://www.w3.org/Graphics/SVG/1.1/DTD/svg11.dtd">
<svg version="1.1" id="Layer_1" xmlns="http://www.w3.org/2000/svg" xmlns:xlink="http://www.w3.org/1999/xlink" x="0px" y="0px"
	 width="50px" height="50px" viewBox="0 0 50 50" enable-background="new 0 0 50 50" xml:space="preserve">
<g>
	<path fill="#828282" d="M49.227,19.705L38.438,30.223l2.556,14.861c0.031,0.207,0.031,0.385,0.031,0.594
		c0,0.805-0.357,1.486-1.221,1.486c-0.416,0-0.832-0.148-1.187-0.355l-13.345-7.016l-13.345,7.016
		c-0.386,0.207-0.771,0.355-1.187,0.355c-0.862,0-1.25-0.711-1.25-1.486c0-0.209,0.03-0.387,0.061-0.594l2.556-14.861L1.29,19.705
		c-0.357-0.388-0.743-0.893-0.743-1.428c0-0.893,0.921-1.248,1.664-1.367l14.919-2.168l6.688-13.524C24.084,0.654,24.589,0,25.273,0
		s1.189,0.654,1.455,1.218l6.688,13.524l14.92,2.168C49.049,17.03,50,17.385,50,18.277C50,18.812,49.614,19.317,49.227,19.705z
		 M43.432,20.061l-12.541-1.841L25.273,6.865l-5.617,11.354L7.115,20.061l9.094,8.828L14.039,41.4l11.234-5.914L36.478,41.4
		l-2.14-12.512L43.432,20.061z"/>
</g>
</svg>
