<?xml version="1.0" encoding="utf-8"?>
<!-- Generator: Adobe Illustrator 16.0.4, SVG Export Plug-In . SVG Version: 6.00 Build 0)  -->
<!DOCTYPE svg PUBLIC "-//W3C//DTD SVG 1.1//EN" "http://www.w3.org/Graphics/SVG/1.1/DTD/svg11.dtd">
<svg version="1.1" id="Layer_1" xmlns="http://www.w3.org/2000/svg" xmlns:xlink="http://www.w3.org/1999/xlink" x="0px" y="0px"
	 width="50px" height="50px" viewBox="0 0 50 50" enable-background="new 0 0 50 50" xml:space="preserve">
<g>
	<g>
		<path fill="#353535" d="M7.583,41.375c0.931-3.148,2.567-4.129,5.165-5.726c2.356-1.452,4.855-2.627,7.553-3.343
			c0.346-0.092,0.741-0.473,0.869-0.812c0.344-0.918,0.461-1.796-0.354-2.682c-1.269-1.383-2.082-3.063-2.484-4.923
			c-0.036-0.163-0.161-0.354-0.297-0.439c-1.464-0.89-2-3.156-1.123-4.647c0.185-0.315,0.307-0.742,0.282-1.105
			c-0.138-1.887-0.208-3.758,0.395-5.595c0.954-2.897,3.131-4.216,5.997-4.539c1.784-0.204,3.571-0.127,5.284,0.552
			c2.53,1.009,3.761,3.007,4.056,5.589c0.157,1.365,0.013,2.758,0.033,4.136c0.008,0.305,0.097,0.646,0.257,0.904
			c0.936,1.489,0.407,3.787-1.085,4.708c-0.151,0.093-0.267,0.323-0.308,0.507c-0.446,2.008-1.466,3.708-2.758,5.27
			c-0.796,0.957-0.195,2.839,0.999,3.171c3.812,1.064,7.259,2.849,10.319,5.371c1.417,1.169,1.741,1.706,2.243,3.518
			c0,0.195-5.824,7.794-17.521,7.792C14.708,48.875,7.583,41.57,7.583,41.375z"/>
	</g>
</g>
<g>
	<path fill="#353535" d="M25.102,49.565c-13.395,0-24.292-10.897-24.292-24.292c0-13.394,10.897-24.29,24.292-24.29
		c13.393,0,24.289,10.896,24.289,24.29C49.391,38.668,38.495,49.565,25.102,49.565z M25.102,3.082
		c-12.238,0-22.194,9.956-22.194,22.192c0,12.238,9.956,22.194,22.194,22.194c12.236,0,22.191-9.956,22.191-22.194
		C47.293,13.037,37.338,3.082,25.102,3.082z"/>
</g>
</svg>
