<?xml version="1.0" encoding="utf-8"?>
<!-- Generator: Adobe Illustrator 16.0.4, SVG Export Plug-In . SVG Version: 6.00 Build 0)  -->
<!DOCTYPE svg PUBLIC "-//W3C//DTD SVG 1.1//EN" "http://www.w3.org/Graphics/SVG/1.1/DTD/svg11.dtd">
<svg version="1.1" id="Layer_1" xmlns="http://www.w3.org/2000/svg" xmlns:xlink="http://www.w3.org/1999/xlink" x="0px" y="0px"
	 width="20px" height="20px" viewBox="0 0 20 20" enable-background="new 0 0 20 20" xml:space="preserve">
<g>
	<path fill="#5D5D5D" d="M19.51,6.78l-9.201,9.201C10.19,16.1,10.012,16.18,9.854,16.18s-0.336-0.08-0.455-0.197l-9.2-9.2
		C0.08,6.661,0,6.484,0,6.326c0-0.158,0.08-0.335,0.199-0.455l0.987-0.985c0.118-0.12,0.276-0.199,0.455-0.199
		c0.155,0,0.334,0.079,0.452,0.199l7.761,7.759l7.762-7.759c0.114-0.12,0.294-0.199,0.448-0.199c0.162,0,0.34,0.079,0.455,0.199
		l0.989,0.985c0.114,0.12,0.195,0.297,0.195,0.455C19.705,6.484,19.624,6.661,19.51,6.78z"/>
</g>
</svg>
