<?xml version="1.0" encoding="utf-8"?>
<!-- Generator: Adobe Illustrator 16.0.4, SVG Export Plug-In . SVG Version: 6.00 Build 0)  -->
<!DOCTYPE svg PUBLIC "-//W3C//DTD SVG 1.1//EN" "http://www.w3.org/Graphics/SVG/1.1/DTD/svg11.dtd">
<svg version="1.1" id="Layer_1" xmlns="http://www.w3.org/2000/svg" xmlns:xlink="http://www.w3.org/1999/xlink" x="0px" y="0px"
	 width="40px" height="40px" viewBox="0 0 40 40" enable-background="new 0 0 40 40" xml:space="preserve">
<path fill="#3F3F3F" d="M36.505,0.996H3.495c-1.378,0-2.5,1.122-2.5,2.5v33.009c0,1.379,1.122,2.5,2.5,2.5h33.01
	c1.379,0,2.5-1.121,2.5-2.5V3.496C39.005,2.117,37.884,0.996,36.505,0.996z"/>
<path fill="#FFFFFF" d="M32.08,25.708l-1.234,1.233c-0.148,0.148-0.347,0.246-0.568,0.246c-0.197,0-0.42-0.098-0.567-0.246
	L20,17.233l-9.708,9.708c-0.149,0.148-0.371,0.246-0.568,0.246c-0.198,0-0.42-0.098-0.569-0.246L7.92,25.708
	c-0.149-0.149-0.248-0.372-0.248-0.567c0-0.199,0.099-0.423,0.248-0.568l11.511-11.513c0.148-0.148,0.371-0.248,0.568-0.248
	c0.197,0,0.42,0.099,0.567,0.248L32.08,24.57c0.146,0.146,0.247,0.369,0.247,0.568C32.327,25.336,32.229,25.559,32.08,25.708z"/>
</svg>
