<?xml version="1.0" encoding="utf-8"?>
<!-- Generator: Adobe Illustrator 16.0.4, SVG Export Plug-In . SVG Version: 6.00 Build 0)  -->
<!DOCTYPE svg PUBLIC "-//W3C//DTD SVG 1.1//EN" "http://www.w3.org/Graphics/SVG/1.1/DTD/svg11.dtd">
<svg version="1.1" id="Layer_1" xmlns="http://www.w3.org/2000/svg" xmlns:xlink="http://www.w3.org/1999/xlink" x="0px" y="0px"
	 width="30px" height="30px" viewBox="0 0 30 30" enable-background="new 0 0 30 30" xml:space="preserve">
<path fill="#FFFFFF" d="M27.431,29.615c-0.605,0-1.184-0.248-1.585-0.672l-6.033-6.012c-2.056,1.427-4.519,2.18-7.014,2.18
	c-6.839,0-12.381-5.537-12.381-12.377c0-6.842,5.542-12.382,12.381-12.382c6.841,0,12.375,5.54,12.375,12.382
	c0,2.494-0.755,4.957-2.179,7.014l6.03,6.032c0.405,0.406,0.653,0.983,0.653,1.584C29.679,28.595,28.658,29.615,27.431,29.615z
	 M12.799,4.858c-4.347,0-7.878,3.533-7.878,7.876c0,4.341,3.531,7.874,7.878,7.874c4.339,0,7.873-3.533,7.873-7.874
	C20.672,8.391,17.138,4.858,12.799,4.858z"/>
</svg>
