<?xml version="1.0" encoding="utf-8"?>
<!-- Generator: Adobe Illustrator 16.0.4, SVG Export Plug-In . SVG Version: 6.00 Build 0)  -->
<!DOCTYPE svg PUBLIC "-//W3C//DTD SVG 1.1//EN" "http://www.w3.org/Graphics/SVG/1.1/DTD/svg11.dtd">
<svg version="1.1" id="Layer_1" xmlns="http://www.w3.org/2000/svg" xmlns:xlink="http://www.w3.org/1999/xlink" x="0px" y="0px"
	 width="30px" height="30px" viewBox="0 0 30 30" enable-background="new 0 0 30 30" xml:space="preserve">
<g>
	<path fill="#35C0BE" d="M28.664,23.521c0,2.84-2.303,5.143-5.143,5.143H6.39c-2.837,0-5.14-2.303-5.14-5.143V6.392
		c0-2.839,2.303-5.142,5.14-5.142h17.131c2.84,0,5.143,2.303,5.143,5.142V23.521z M24.096,13.814c0-0.624-0.519-1.142-1.144-1.142
		h-5.71V6.961c0-0.624-0.52-1.142-1.145-1.142h-2.284c-0.624,0-1.142,0.518-1.142,1.142v5.712H6.961
		c-0.624,0-1.142,0.518-1.142,1.142V16.1c0,0.625,0.518,1.144,1.142,1.144h5.712v5.71c0,0.625,0.518,1.145,1.142,1.145H16.1
		c0.625,0,1.144-0.52,1.144-1.145v-5.71h5.71c0.625,0,1.145-0.519,1.145-1.144v-2.286H24.096z"/>
</g>
</svg>
