<?xml version="1.0" encoding="utf-8"?>
<!-- Generator: Adobe Illustrator 16.0.0, SVG Export Plug-In . SVG Version: 6.00 Build 0)  -->
<!DOCTYPE svg PUBLIC "-//W3C//DTD SVG 1.1//EN" "http://www.w3.org/Graphics/SVG/1.1/DTD/svg11.dtd">
<svg version="1.1" id="Layer_1" xmlns="http://www.w3.org/2000/svg" xmlns:xlink="http://www.w3.org/1999/xlink" x="0px" y="0px"
	 width="50px" height="50px" viewBox="0 0 50 50" enable-background="new 0 0 50 50" xml:space="preserve">
<g id="nxnz1i.tif">
</g>
<g>
	<path d="M0,49.139c1.273-4.318,4.647-6.742,8.206-8.931c3.234-1.987,6.657-3.599,10.357-4.581c0.472-0.125,1.013-0.65,1.186-1.115
		c0.47-1.262,0.639-2.461-0.48-3.678c-1.746-1.896-2.854-4.2-3.406-6.748c-0.048-0.223-0.22-0.484-0.412-0.601
		c-2.005-1.22-2.738-4.328-1.537-6.37c0.256-0.436,0.423-1.019,0.386-1.516c-0.193-2.588-0.285-5.154,0.543-7.669
		c1.308-3.973,4.292-5.78,8.22-6.226c2.444-0.278,4.896-0.174,7.24,0.759c3.473,1.383,5.158,4.123,5.565,7.662
		c0.215,1.867,0.012,3.779,0.046,5.67c0.008,0.418,0.132,0.887,0.354,1.239c1.274,2.039,0.555,5.189-1.488,6.453
		c-0.209,0.13-0.369,0.442-0.426,0.697c-0.61,2.75-2.006,5.085-3.778,7.223c-1.089,1.31-0.271,3.892,1.366,4.349
		c5.229,1.458,9.953,3.905,14.144,7.36c1.948,1.606,3.461,3.534,4.149,6.021c0,0.262,0,0.523,0,0.785
		c-0.355,0.025-0.713,0.073-1.068,0.073c-16.032,0.004-32.065,0.004-48.097,0c-0.356,0-0.713-0.048-1.069-0.073
		C0,49.662,0,49.4,0,49.139z"/>
</g>
</svg>
